<?xml version="1.0" encoding="UTF-8" standalone="no"?>
<!-- Created with Inkscape (http://www.inkscape.org/) -->

<svg
   width="300"
   height="70.963013"
   viewBox="0 0 79.374999 18.77563"
   version="1.1"
   id="svg5"
   inkscape:version="1.1 (ce6663b3b7, 2021-05-25)"
   sodipodi:docname="v5.svg"
   xmlns:inkscape="http://www.inkscape.org/namespaces/inkscape"
   xmlns:sodipodi="http://sodipodi.sourceforge.net/DTD/sodipodi-0.dtd"
   xmlns:xlink="http://www.w3.org/1999/xlink"
   xmlns="http://www.w3.org/2000/svg"
   xmlns:svg="http://www.w3.org/2000/svg">
  <sodipodi:namedview
     id="namedview7"
     pagecolor="#505050"
     bordercolor="#eeeeee"
     borderopacity="1"
     inkscape:pageshadow="0"
     inkscape:pageopacity="0"
     inkscape:pagecheckerboard="0"
     inkscape:document-units="mm"
     showgrid="true"
     width="300px"
     units="px"
     inkscape:zoom="4"
     inkscape:cx="151.25"
     inkscape:cy="-14.125"
     inkscape:window-width="2679"
     inkscape:window-height="1376"
     inkscape:window-x="72"
     inkscape:window-y="27"
     inkscape:window-maximized="0"
     inkscape:current-layer="layer1"
     inkscape:snap-bbox="true"
     inkscape:snap-page="true"
     inkscape:bbox-paths="true"
     inkscape:snap-text-baseline="true"
     inkscape:snap-global="false"
     inkscape:bbox-nodes="true">
    <inkscape:grid
       type="xygrid"
       id="grid23476"
       originx="9.3241594e-10"
       originy="1.8039216e-07"
       spacingx="1.3229167"
       spacingy="1.3229167" />
  </sodipodi:namedview>
  <defs
     id="defs2">
    <linearGradient
       inkscape:collect="always"
       id="linearGradient41078">
      <stop
         style="stop-color:#6c0000;stop-opacity:1"
         offset="0"
         id="stop41074" />
      <stop
         style="stop-color:#b47a2c;stop-opacity:1"
         offset="1"
         id="stop41076" />
    </linearGradient>
    <rect
       x="15.038945"
       y="9.4742298"
       width="271.28741"
       height="50.456268"
       id="rect2541" />
    <style
       id="style10686">.cls-1{fill:#fff;stroke:#fff;stroke-miterlimit:10;}.cls-2{fill:#e32527;}.cls-3{fill:#e32728;}.cls-4{fill:#a66e2a;}.cls-5{fill:#ae722a;}.cls-6{fill:#ac772b;}.cls-7{fill:#a26628;}.cls-8{fill:#986327;}.cls-9{fill:#935e26;}.cls-10{fill:#f8f4ea;}.cls-11{fill:#b47a2c;}</style>
    <style
       id="style11431">.cls-1{fill:#fff;stroke:#fff;stroke-miterlimit:10;}.cls-2{fill:#e32527;}.cls-3{fill:#e32728;}.cls-4{fill:#a66e2a;}.cls-5{fill:#ae722a;}.cls-6{fill:#ac772b;}.cls-7{fill:#a26628;}.cls-8{fill:#986327;}.cls-9{fill:#935e26;}.cls-10{fill:#f8f4ea;}.cls-11{fill:#b47a2c;}</style>
    <linearGradient
       inkscape:collect="always"
       xlink:href="#linearGradient41078"
       id="linearGradient41080"
       x1="70.259094"
       y1="28.486963"
       x2="233.4765"
       y2="29.360304"
       gradientUnits="userSpaceOnUse" />
  </defs>
  <g
     inkscape:label="Layer 1"
     inkscape:groupmode="layer"
     id="layer1"
     style="display:inline">
    <g
       aria-label="SwissCorr"
       transform="matrix(0.46845623,0,0,0.46845623,-30.966296,-7.3616062)"
       id="text2539"
       style="font-size:40px;line-height:1.05;letter-spacing:0px;white-space:pre;shape-inside:url(#rect2541)">
      <g
         id="g40914"
         style="fill-opacity:1;fill:url(#linearGradient41080)">
        <path
           d="m 75.782859,43.954608 q -4.44,0 -6.92,-2.2 -2.48,-2.24 -2.76,-6.44 h 4.96 q 0.28,2.28 1.44,3.24 1.2,0.92 3.52,0.92 4.44,0 4.44,-3.64 0,-1.64 -0.88,-2.48 -0.88,-0.88 -2.8,-1.2 l -2.6,-0.44 q -7.48,-1.24 -7.48,-7.68 0,-3.84 2.52,-6.08 2.56,-2.24 6.76,-2.24 4.08,0 6.44,2.16 2.4,2.16 2.72,6.08 h -5.04 q -0.12,-2 -1.16,-2.92 -1.04,-0.92 -3.04,-0.92 -2.04,0 -3.08,0.96 -1.04,0.92 -1.04,2.56 0,1.44 0.92,2.28 0.92,0.84 2.88,1.2 l 2.92,0.52 q 7.12,1.28 7.12,7.76 0,4.16 -2.68,6.36 -2.64,2.2 -7.16,2.2 z"
           style="font-weight:bold;font-family:D-DIN;-inkscape-font-specification:'D-DIN Bold';text-align:center;direction:rtl;text-anchor:middle;fill:url(#linearGradient41080);fill-opacity:1"
           id="path39155" />
        <path
           d="m 87.382797,22.914608 h 5.24 l 3.24,13.2 4,-13.2 h 3.720003 l 4,13.2 3.24,-13.2 h 5.28 l -6.12,20.8 h -4.2 l -4.08,-13.48 -4.040003,13.48 h -4.2 z"
           style="font-weight:bold;font-family:D-DIN;-inkscape-font-specification:'D-DIN Bold';text-align:center;direction:rtl;text-anchor:middle;fill:url(#linearGradient41080);fill-opacity:1"
           id="path39157" />
        <path
           d="m 118.82272,22.914608 h 4.92 v 20.8 h -4.92 z m -0.08,-6.8 h 5.04 v 3.96 h -5.04 z"
           style="font-weight:bold;font-family:D-DIN;-inkscape-font-specification:'D-DIN Bold';text-align:center;direction:rtl;text-anchor:middle;fill:url(#linearGradient41080);fill-opacity:1"
           id="path39159" />
        <path
           d="m 135.22265,43.954608 q -3.56,0 -5.72,-1.72 -2.16,-1.76 -2.16,-4.68 v -0.16 h 4.64 v 0.08 q 0,1.16 0.92,1.84 0.96,0.64 2.48,0.64 1.64,0 2.56,-0.56 0.92,-0.6 0.92,-1.76 0,-0.96 -0.68,-1.48 -0.68,-0.52 -2.28,-0.76 l -2.2,-0.36 q -3.12,-0.52 -4.6,-1.92 -1.48,-1.4 -1.48,-4 0,-2.96 2.16,-4.68 2.2,-1.76 5.6,-1.76 2.32,0 4.08,0.8 1.8,0.76 2.76,2.16 1,1.36 1,3.08 v 0.24 h -4.6 v -0.12 q 0,-1.08 -0.88,-1.68 -0.84,-0.6 -2.36,-0.6 -1.52,0 -2.32,0.6 -0.8,0.6 -0.8,1.6 0,0.92 0.6,1.44 0.64,0.52 2.04,0.72 l 2.44,0.36 q 3.12,0.44 4.68,1.92 1.56,1.48 1.56,4.08 0,3.2 -2.32,4.96 -2.32,1.72 -6.04,1.72 z"
           style="font-weight:bold;font-family:D-DIN;-inkscape-font-specification:'D-DIN Bold';text-align:center;direction:rtl;text-anchor:middle;fill:url(#linearGradient41080);fill-opacity:1"
           id="path39161" />
        <path
           d="m 154.18261,43.954608 q -3.56,0 -5.72,-1.72 -2.16,-1.76 -2.16,-4.68 v -0.16 h 4.64 v 0.08 q 0,1.16 0.92,1.84 0.96,0.64 2.48,0.64 1.64,0 2.56,-0.56 0.92,-0.6 0.92,-1.76 0,-0.96 -0.68,-1.48 -0.68,-0.52 -2.28,-0.76 l -2.2,-0.36 q -3.12,-0.52 -4.6,-1.92 -1.48,-1.4 -1.48,-4 0,-2.96 2.16,-4.68 2.2,-1.76 5.6,-1.76 2.32,0 4.08,0.8 1.8,0.76 2.76,2.16 1,1.36 1,3.08 v 0.24 h -4.6 v -0.12 q 0,-1.08 -0.88,-1.68 -0.84,-0.6 -2.36,-0.6 -1.52,0 -2.32,0.6 -0.8,0.6 -0.8,1.6 0,0.92 0.6,1.44 0.64,0.52 2.04,0.72 l 2.44,0.36 q 3.12,0.44 4.68,1.92 1.56,1.48 1.56,4.08 0,3.2 -2.32,4.96 -2.32,1.72 -6.04,1.72 z"
           style="font-weight:bold;font-family:D-DIN;-inkscape-font-specification:'D-DIN Bold';text-align:center;direction:rtl;text-anchor:middle;fill:url(#linearGradient41080);fill-opacity:1"
           id="path39163" />
        <path
           d="m 175.86257,44.034608 q -10.04,0 -10.04,-11 v -6.32 q 0,-11 10.12,-11 4.52,0 7.2,2.4 2.68,2.4 2.68,6.76 v 0.28 h -5.24 v -0.24 q 0,-2.12 -1.24,-3.36 -1.2,-1.24 -3.44,-1.24 -2.52,0 -3.68,1.56 -1.12,1.56 -1.12,5.12 v 5.96 q 0,3.36 1.16,4.88 1.2,1.52 3.72,1.52 2.24,0 3.4,-1.2 1.2,-1.2 1.2,-3.28 v -0.32 h 5.16 v 0.28 q 0,4.44 -2.64,6.84 -2.64,2.36 -7.24,2.36 z"
           style="font-weight:bold;font-family:D-DIN;-inkscape-font-specification:'D-DIN Bold';text-align:center;direction:rtl;text-anchor:middle;fill:url(#linearGradient41080);fill-opacity:1"
           id="path39165" />
        <path
           d="m 209.78239,22.914608 h 4.84 v 2.16 q 0.76,-1.32 2.04,-1.96 1.28,-0.64 2.88,-0.64 0.92,0 1.68,0.16 v 4.64 q -1.4,-0.44 -2.48,-0.44 -1.8,0 -2.92,1.16 -1.08,1.12 -1.08,3.24 v 12.48 h -4.96 z"
           style="font-weight:bold;font-family:D-DIN;-inkscape-font-specification:'D-DIN Bold';text-align:center;direction:rtl;text-anchor:middle;fill:url(#linearGradient41080);fill-opacity:1"
           id="path39169" />
        <path
           d="m 224.10238,22.914608 h 4.84 v 2.16 q 0.76,-1.32 2.04,-1.96 1.28,-0.64 2.88,-0.64 0.92,0 1.68,0.16 v 4.64 q -1.4,-0.44 -2.48,-0.44 -1.8,0 -2.92,1.16 -1.08,1.12 -1.08,3.24 v 12.48 h -4.96 z"
           style="font-weight:bold;font-family:D-DIN;-inkscape-font-specification:'D-DIN Bold';text-align:center;direction:rtl;text-anchor:middle;fill:url(#linearGradient41080);fill-opacity:1"
           id="path39171" />
      </g>
    </g>
    <g
       aria-label="The Swiss Corrosion Network"
       transform="scale(1.001174,0.99882737)"
       id="text16920"
       style="font-size:5.46371px;line-height:1.25;fill:#ffffff;stroke-width:0.341482">
      <path
         d="m 0,14.737241 h 3.3694656 v 0.45353 H 1.9555172 v 3.529535 H 1.4139483 V 15.190771 H 0 Z"
         id="path910" />
      <path
         d="m 6.3520963,16.916855 v 1.803451 H 5.8612161 v -1.787444 q 0,-0.424184 -0.1654053,-0.634943 -0.1654053,-0.210758 -0.4962158,-0.210758 -0.3975062,0 -0.6269394,0.253444 -0.2294331,0.253443 -0.2294331,0.690967 v 1.688734 h -0.493548 v -4.151139 h 0.493548 v 1.627375 q 0.1760766,-0.269451 0.4135132,-0.402842 0.2401044,-0.133391 0.5522402,-0.133391 0.5148906,0 0.7790055,0.320139 0.2641149,0.317471 0.2641149,0.936407 z"
         id="path912" />
      <path
         d="m 9.886967,17.103603 v 0.240105 H 7.6299853 q 0.032014,0.506887 0.3041323,0.773669 0.2747862,0.264115 0.7629985,0.264115 0.2827897,0 0.5469046,-0.06936 0.2667827,-0.06936 0.5282297,-0.208091 v 0.464202 q -0.2641149,0.112049 -0.5415689,0.170741 -0.277454,0.05869 -0.5629115,0.05869 -0.7149776,0 -1.1338265,-0.416181 -0.416181,-0.416181 -0.416181,-1.125823 0,-0.733652 0.3948384,-1.163172 0.3975062,-0.432188 1.0697986,-0.432188 0.602929,0 0.9524143,0.389503 0.3521532,0.386834 0.3521532,1.053791 z M 9.3960868,16.959541 Q 9.3907511,16.556699 9.1693215,16.316594 8.9505597,16.07649 8.5877352,16.07649 q -0.4108454,0 -0.6589533,0.232101 -0.2454401,0.232101 -0.2827897,0.653617 z"
         id="path914" />
      <path
         d="m 14.838454,14.867964 v 0.525562 q -0.3068,-0.14673 -0.578918,-0.218762 -0.272118,-0.07203 -0.525562,-0.07203 -0.440191,0 -0.680296,0.170741 -0.237436,0.170741 -0.237436,0.485544 0,0.264115 0.157401,0.400174 0.16007,0.133392 0.602929,0.216094 l 0.325475,0.0667 q 0.602929,0.114717 0.888387,0.40551 0.288125,0.288125 0.288125,0.77367 0,0.578918 -0.389503,0.877715 -0.386835,0.298796 -1.136494,0.298796 -0.28279,0 -0.602929,-0.06403 -0.317472,-0.06403 -0.658953,-0.189416 v -0.554908 q 0.328142,0.18408 0.642946,0.277454 0.314804,0.09337 0.618936,0.09337 0.461534,0 0.71231,-0.181412 0.250775,-0.181413 0.250775,-0.517559 0,-0.293461 -0.181412,-0.458866 -0.178744,-0.165405 -0.58959,-0.248108 l -0.328142,-0.06403 q -0.602929,-0.120052 -0.87238,-0.376164 -0.26945,-0.256111 -0.26945,-0.712309 0,-0.52823 0.370828,-0.832362 0.373495,-0.304133 1.027113,-0.304133 0.280122,0 0.570915,0.05069 0.290793,0.05069 0.594925,0.152066 z"
         id="path916" />
      <path
         d="m 15.612124,15.73234 h 0.49088 l 0.6136,2.331681 0.610933,-2.331681 h 0.578918 l 0.613601,2.331681 0.610932,-2.331681 h 0.49088 l -0.781673,2.987966 h -0.578919 l -0.642946,-2.449065 -0.645614,2.449065 h -0.578919 z"
         id="path918" />
      <path
         d="m 20.366192,15.73234 h 0.49088 v 2.987966 h -0.49088 z m 0,-1.163173 h 0.49088 v 0.621604 h -0.49088 z"
         id="path920" />
      <path
         d="m 23.789015,15.820378 v 0.464202 q -0.208091,-0.106713 -0.432188,-0.160069 -0.224098,-0.05336 -0.464202,-0.05336 -0.365492,0 -0.549573,0.112049 -0.181412,0.112049 -0.181412,0.336146 0,0.170741 0.130724,0.269451 0.130723,0.09604 0.525562,0.18408 l 0.168073,0.03735 q 0.522894,0.112049 0.741656,0.317472 0.221429,0.202755 0.221429,0.568247 0,0.416181 -0.33081,0.658953 -0.328143,0.242772 -0.904394,0.242772 -0.240104,0 -0.501551,-0.04802 -0.258779,-0.04535 -0.546905,-0.138727 v -0.506887 q 0.272119,0.141395 0.536234,0.213427 0.264115,0.06936 0.522894,0.06936 0.346817,0 0.533565,-0.117384 0.186748,-0.120053 0.186748,-0.336147 0,-0.200087 -0.136059,-0.3068 -0.133391,-0.106713 -0.58959,-0.205422 l -0.170741,-0.04002 q -0.456198,-0.09604 -0.658953,-0.293461 -0.202755,-0.200087 -0.202755,-0.546904 0,-0.421517 0.298797,-0.65095 0.298796,-0.229433 0.848369,-0.229433 0.272118,0 0.512222,0.04002 0.240105,0.04002 0.44286,0.120052 z"
         id="path922" />
      <path
         d="m 26.635586,15.820378 v 0.464202 q -0.208091,-0.106713 -0.432188,-0.160069 -0.224098,-0.05336 -0.464202,-0.05336 -0.365492,0 -0.549573,0.112049 -0.181412,0.112049 -0.181412,0.336146 0,0.170741 0.130724,0.269451 0.130723,0.09604 0.525562,0.18408 l 0.168073,0.03735 q 0.522894,0.112049 0.741656,0.317472 0.221429,0.202755 0.221429,0.568247 0,0.416181 -0.33081,0.658953 -0.328143,0.242772 -0.904394,0.242772 -0.240104,0 -0.501551,-0.04802 -0.258779,-0.04535 -0.546905,-0.138727 v -0.506887 q 0.272119,0.141395 0.536234,0.213427 0.264115,0.06936 0.522894,0.06936 0.346817,0 0.533565,-0.117384 0.186748,-0.120053 0.186748,-0.336147 0,-0.200087 -0.136059,-0.3068 -0.133391,-0.106713 -0.58959,-0.205422 l -0.170741,-0.04002 q -0.456198,-0.09604 -0.658953,-0.293461 -0.202755,-0.200087 -0.202755,-0.546904 0,-0.421517 0.298797,-0.65095 0.298796,-0.229433 0.848369,-0.229433 0.272118,0 0.512222,0.04002 0.240105,0.04002 0.44286,0.120052 z"
         id="path924" />
      <path
         d="m 32.318057,15.044041 v 0.568247 q -0.272119,-0.253444 -0.581586,-0.378832 -0.306801,-0.125387 -0.653618,-0.125387 -0.682964,0 -1.045788,0.418848 -0.362825,0.416181 -0.362825,1.205858 0,0.787009 0.362825,1.205858 0.362824,0.416181 1.045788,0.416181 0.346817,0 0.653618,-0.125388 0.309467,-0.125388 0.581586,-0.378831 v 0.562911 q -0.28279,0.192084 -0.600261,0.288126 -0.314804,0.09604 -0.666957,0.09604 -0.904393,0 -1.42462,-0.55224 -0.520226,-0.554908 -0.520226,-1.512658 0,-0.960418 0.520226,-1.512658 0.520227,-0.554908 1.42462,-0.554908 0.357489,0 0.672292,0.09604 0.317472,0.09337 0.594926,0.28279 z"
         id="path926" />
      <path
         d="m 34.286913,16.07649 q -0.394838,0 -0.624271,0.309468 -0.229433,0.3068 -0.229433,0.843033 0,0.536233 0.226765,0.845701 0.229433,0.3068 0.626939,0.3068 0.392171,0 0.621604,-0.309468 0.229433,-0.309468 0.229433,-0.843033 0,-0.530898 -0.229433,-0.840365 -0.229433,-0.312136 -0.621604,-0.312136 z m 0,-0.416181 q 0.640279,0 1.005771,0.416181 0.365493,0.416181 0.365493,1.152501 0,0.733653 -0.365493,1.152501 -0.365492,0.416181 -1.005771,0.416181 -0.642946,0 -1.008438,-0.416181 -0.362825,-0.418848 -0.362825,-1.152501 0,-0.73632 0.362825,-1.152501 0.365492,-0.416181 1.008438,-0.416181 z"
         id="path928" />
      <path
         d="m 38.203285,16.191206 q -0.0827,-0.04802 -0.181412,-0.06936 -0.09604,-0.02401 -0.213426,-0.02401 -0.416182,0 -0.640279,0.272119 -0.22143,0.26945 -0.22143,0.776337 v 1.574018 H 36.45319 V 15.73234 h 0.493548 v 0.464202 q 0.154734,-0.272118 0.402842,-0.402842 0.248108,-0.133391 0.602929,-0.133391 0.05069,0 0.112049,0.008 0.06136,0.0053 0.136059,0.01867 z"
         id="path930" />
      <path
         d="m 40.353553,16.191206 q -0.0827,-0.04802 -0.181412,-0.06936 -0.09604,-0.02401 -0.213426,-0.02401 -0.416181,0 -0.640278,0.272119 -0.22143,0.26945 -0.22143,0.776337 v 1.574018 H 38.603459 V 15.73234 h 0.493548 v 0.464202 q 0.154734,-0.272118 0.402842,-0.402842 0.248108,-0.133391 0.602929,-0.133391 0.05069,0 0.112048,0.008 0.06136,0.0053 0.13606,0.01867 z"
         id="path932" />
      <path
         d="m 41.906226,16.07649 q -0.394839,0 -0.624272,0.309468 -0.229433,0.3068 -0.229433,0.843033 0,0.536233 0.226765,0.845701 0.229433,0.3068 0.62694,0.3068 0.39217,0 0.621603,-0.309468 0.229434,-0.309468 0.229434,-0.843033 0,-0.530898 -0.229434,-0.840365 -0.229433,-0.312136 -0.621603,-0.312136 z m 0,-0.416181 q 0.640278,0 1.00577,0.416181 0.365493,0.416181 0.365493,1.152501 0,0.733653 -0.365493,1.152501 -0.365492,0.416181 -1.00577,0.416181 -0.642947,0 -1.008439,-0.416181 -0.362824,-0.418848 -0.362824,-1.152501 0,-0.73632 0.362824,-1.152501 0.365492,-0.416181 1.008439,-0.416181 z"
         id="path934" />
      <path
         d="m 45.996006,15.820378 v 0.464202 q -0.208091,-0.106713 -0.432188,-0.160069 -0.224098,-0.05336 -0.464202,-0.05336 -0.365492,0 -0.549572,0.112049 -0.181413,0.112049 -0.181413,0.336146 0,0.170741 0.130724,0.269451 0.130723,0.09604 0.525562,0.18408 l 0.168073,0.03735 q 0.522894,0.112049 0.741656,0.317472 0.22143,0.202755 0.22143,0.568247 0,0.416181 -0.330811,0.658953 -0.328143,0.242772 -0.904393,0.242772 -0.240105,0 -0.501552,-0.04802 -0.258779,-0.04535 -0.546904,-0.138727 v -0.506887 q 0.272118,0.141395 0.536233,0.213427 0.264115,0.06936 0.522894,0.06936 0.346817,0 0.533565,-0.117384 0.186748,-0.120053 0.186748,-0.336147 0,-0.200087 -0.136059,-0.3068 -0.133391,-0.106713 -0.58959,-0.205422 l -0.170741,-0.04002 q -0.456198,-0.09604 -0.658953,-0.293461 -0.202755,-0.200087 -0.202755,-0.546904 0,-0.421517 0.298797,-0.65095 0.298796,-0.229433 0.848369,-0.229433 0.272118,0 0.512223,0.04002 0.240104,0.04002 0.442859,0.120052 z"
         id="path936" />
      <path
         d="m 46.93775,15.73234 h 0.49088 v 2.987966 h -0.49088 z m 0,-1.163173 h 0.49088 v 0.621604 h -0.49088 z"
         id="path938" />
      <path
         d="m 49.613581,16.07649 q -0.394838,0 -0.624271,0.309468 -0.229433,0.3068 -0.229433,0.843033 0,0.536233 0.226765,0.845701 0.229433,0.3068 0.626939,0.3068 0.392171,0 0.621604,-0.309468 0.229433,-0.309468 0.229433,-0.843033 0,-0.530898 -0.229433,-0.840365 -0.229433,-0.312136 -0.621604,-0.312136 z m 0,-0.416181 q 0.640279,0 1.005771,0.416181 0.365492,0.416181 0.365492,1.152501 0,0.733653 -0.365492,1.152501 -0.365492,0.416181 -1.005771,0.416181 -0.642946,0 -1.008438,-0.416181 -0.362825,-0.418848 -0.362825,-1.152501 0,-0.73632 0.362825,-1.152501 0.365492,-0.416181 1.008438,-0.416181 z"
         id="path940" />
      <path
         d="m 54.282276,16.916855 v 1.803451 h -0.49088 v -1.787444 q 0,-0.424184 -0.165405,-0.634943 -0.165406,-0.210758 -0.496216,-0.210758 -0.397506,0 -0.62694,0.253444 -0.229433,0.253443 -0.229433,0.690967 v 1.688734 H 51.779854 V 15.73234 h 0.493548 v 0.464202 q 0.176077,-0.269451 0.413514,-0.402842 0.240104,-0.133391 0.55224,-0.133391 0.51489,0 0.779005,0.320139 0.264115,0.317471 0.264115,0.936407 z"
         id="path942" />
      <path
         d="m 57.019468,14.737241 h 0.725649 l 1.766102,3.332116 v -3.332116 h 0.522894 v 3.983065 H 59.308464 L 57.542362,15.38819 v 3.332116 h -0.522894 z"
         id="path944" />
      <path
         d="m 63.641012,17.103603 v 0.240105 h -2.256981 q 0.03201,0.506887 0.304132,0.773669 0.274786,0.264115 0.762999,0.264115 0.282789,0 0.546904,-0.06936 0.266783,-0.06936 0.52823,-0.208091 v 0.464202 q -0.264115,0.112049 -0.541569,0.170741 -0.277454,0.05869 -0.562912,0.05869 -0.714977,0 -1.133826,-0.416181 -0.416181,-0.416181 -0.416181,-1.125823 0,-0.733652 0.394838,-1.163172 0.397507,-0.432188 1.069799,-0.432188 0.602929,0 0.952414,0.389503 0.352153,0.386834 0.352153,1.053791 z m -0.49088,-0.144062 q -0.0053,-0.402842 -0.226765,-0.642947 -0.218762,-0.240104 -0.581586,-0.240104 -0.410846,0 -0.658954,0.232101 -0.24544,0.232101 -0.282789,0.653617 z"
         id="path946" />
      <path
         d="m 64.932244,14.883971 v 0.848369 h 1.011107 v 0.381499 h -1.011107 v 1.622039 q 0,0.365493 0.09871,0.469538 0.101377,0.104045 0.408177,0.104045 h 0.50422 v 0.410845 h -0.50422 q -0.568247,0 -0.784341,-0.210758 -0.216094,-0.213426 -0.216094,-0.77367 V 16.113839 H 64.078539 V 15.73234 h 0.360157 v -0.848369 z"
         id="path948" />
      <path
         d="m 66.303507,15.73234 h 0.490881 l 0.6136,2.331681 0.610932,-2.331681 h 0.578919 l 0.6136,2.331681 0.610932,-2.331681 h 0.49088 l -0.781673,2.987966 H 68.95266 l -0.642947,-2.449065 -0.645614,2.449065 h -0.578918 z"
         id="path950" />
      <path
         d="m 72.215407,16.07649 q -0.394839,0 -0.624272,0.309468 -0.229433,0.3068 -0.229433,0.843033 0,0.536233 0.226766,0.845701 0.229433,0.3068 0.626939,0.3068 0.39217,0 0.621604,-0.309468 0.229433,-0.309468 0.229433,-0.843033 0,-0.530898 -0.229433,-0.840365 -0.229434,-0.312136 -0.621604,-0.312136 z m 0,-0.416181 q 0.640278,0 1.005771,0.416181 0.365492,0.416181 0.365492,1.152501 0,0.733653 -0.365492,1.152501 -0.365493,0.416181 -1.005771,0.416181 -0.642946,0 -1.008439,-0.416181 -0.362824,-0.418848 -0.362824,-1.152501 0,-0.73632 0.362824,-1.152501 0.365493,-0.416181 1.008439,-0.416181 z"
         id="path952" />
      <path
         d="m 76.131778,16.191206 q -0.0827,-0.04802 -0.181412,-0.06936 -0.09604,-0.02401 -0.213426,-0.02401 -0.416181,0 -0.640278,0.272119 -0.22143,0.26945 -0.22143,0.776337 v 1.574018 H 74.381684 V 15.73234 h 0.493548 v 0.464202 q 0.154734,-0.272118 0.402842,-0.402842 0.248108,-0.133391 0.602929,-0.133391 0.05069,0 0.112048,0.008 0.06136,0.0053 0.13606,0.01867 z"
         id="path954" />
      <path
         d="m 76.627999,14.569167 h 0.493548 v 2.451734 l 1.464637,-1.288561 h 0.626939 l -1.584689,1.397941 1.651385,1.590025 H 78.63954 l -1.517993,-1.459301 v 1.459301 h -0.493548 z"
         id="path956" />
    </g>
    <text
       xml:space="preserve"
       style="font-style:normal;font-weight:normal;font-size:10.5833px;line-height:1.25;font-family:sans-serif;fill:#000000;fill-opacity:1;stroke:none;stroke-width:0.264583"
       x="72.760414"
       y="-6.614583"
       id="text32906"><tspan
         sodipodi:role="line"
         id="tspan32904"
         style="stroke-width:0.264583"
         x="72.760414"
         y="-6.614583" /></text>
  </g>
  <g
     inkscape:groupmode="layer"
     id="layer3"
     inkscape:label="Layer 2"
     style="display:inline">
    <g
       id="Layer_1-2"
       data-name="Layer 1"
       transform="matrix(0,-0.02150498,0.02150498,0,59.783604,24.707591)">
      <path
         class="cls-4"
         d="m 895.13636,187.11511 a 32.4,32.4 0 0 1 8.82,17.64 c -5.868,8.388 -12.204,3.024 -18.792,0.972 -12.744,-3.96 -19.836,7.02 -28.008,12.924 -3.6,2.628 1.656,10.8 6.624,12.744 14.4,5.904 21.276,14.4 14.616,30.276 -1.332,3.204 0,8.316 3.888,8.64 2.52,0.216 5.652,-3.6 8.064,-5.94 3.24,-3.204 -3.384,-8.136 1.656,-11.268 16.236,1.728 18.936,19.44 30.96,27 4.824,3.024 2.16,18.216 2.304,27.864 a 41.544,41.544 0 0 1 -8.28,1.8 c -43.2,-15.588 -76.14,-45.684 -108.396,-80.712 -7.524,29.268 -15.444,56.268 -28.044,81.504 -2.88,5.868 -5.544,12.456 -11.592,15.408 -6.048,2.952 -13.104,5.076 -18.684,0.216 -5.58,-4.86 -0.792,-9.864 1.584,-14.4 a 22.608,22.608 0 0 0 3.6,-13.608 c -3.384,-22.536 -6.948,-45.036 -10.476,-67.536 0,-1.296 0,-2.556 -0.288,-3.852 a 94.104,94.104 0 0 1 5.472,-9.216 c 9.9,-13.32 4.428,-28.188 -12.636,-33.948 v 0 c -0.468,-3.6 1.728,-8.82 -5.076,-9.108 -8.784,-0.36 -8.784,-8.136 -12.024,-13.608 -6.228,-10.8 8.172,-15.048 6.3,-24.048 l 3.6,-3.6 3.6,-10.8 6.48,7.2 c 11.628,14.688 17.712,15.3 32.904,3.312 7.992,0 7.2,-6.156 7.776,-11.268 l 10.548,5.04 c 10.296,2.124 12.132,11.16 14.004,20.412 10.8,-11.628 11.376,-23.292 7.2,-35.748 v 0 c 2.052,-0.18 5.364,0.828 4.824,-2.628 0,-1.404 -3.42,-2.376 -5.256,-3.6 h -0.18 l 4.716,-7.704002 14.4,3.600002 c 2.376,3.6 4.788,3.6 7.2,0 h 3.6 v 0 c 1.152,3.6 2.34,7.2 3.6,10.8 -4.104,6.84 -2.988,17.46 -12.672,20.016 -3.6,0.936 -9.288,-2.52 -7.92,4.608 1.152,6.264 7.2,0.972 10.584,2.736 4.104,2.052 6.12,-3.6 9.432,-3.168 a 16.92,16.92 0 0 1 12.888,8.64 c 2.052,3.276 0.216,5.292 -3.06,6.696 -3.276,1.404 -9.648,1.584 -4.572,7.956 3.6,4.356 8.46,9.144 13.428,5.508 6.912,-5.04 11.664,-1.44 17.28,1.008 a 24.12,24.12 0 0 1 8.424,13.068 c -0.792,4.212 0.396,7.56 5.58,8.172 z m -74.736,-68.4 -1.476,-0.828 1.476,0.828 c 0.396,1.872 -0.396,4.572 2.736,4.68 0.648,0 2.016,-1.296 1.98,-1.98 -0.144,-3.024 -2.808,-2.16 -4.716,-2.628 z m 54,72 c 1.296,1.404 2.052,4.644 4.68,1.332 l -4.68,-1.332 a 30.168,30.168 0 0 1 0.288,-8.856 c 3.168,-9.468 -3.816,-8.856 -9.324,-10.224 -3.6,-0.828 -7.2,-2.628 -8.424,2.628 -1.368,6.3 -0.828,11.916 7.2,13.464 3.528,0.684 6.876,1.98 10.26,2.988 z"
         id="path11477"
         style="stroke-width:3.6" />
      <path
         class="cls-5"
         d="m 734.03636,122.35111 c -1.224,3.6 -2.412,7.2 -3.6,10.8 -1.224,0 -2.412,0 -3.6,0 v -10.8 c -8.172,-8.208 -18,-0.576 -26.676,-2.016 -0.864,-6.696 12.744,-7.632 7.2,-11.592 -12.492,-9.144002 -5.868,-24.876002 -15.012,-34.704 -2.088,-2.268 -10.44,-5.58 -4.032,-10.8 4.284,-3.6 7.2,1.512 9.72,4.824 4.752,6.228 9.612,3.6 13.284,-0.756 5.976,-7.2 -2.628,-8.388 -5.652,-8.784 -11.052,-1.404 -7.2,-10.8 -6.768,-15.084 0.936,-7.632 8.928,-2.088 13.5,-3.78 0.648,3.276 0.756,7.2 5.868,5.364 1.044,-0.396 1.44,-2.52 2.16,-3.816 l -8.064,-1.512 c -2.088,-6.408 5.148,-9.972 5.4,-15.804 -12.708,-0.72 -24.588,-5.076 -36.936,-1.476 -18.648,5.436 -26.604,-2.412 -22.428,-21.95999961 8.784,3.13200001 17.532,6.40800001 26.388,9.36000001 7.632,2.5199996 11.412,1.4039996 8.46,-8.136 -4.176,-13.4640004 -10.8,-26.4240004 -9.72,-41.1120004 11.412,3.6 3.6,16.92 11.916,22.824 3.96,-4.68 3.6,-17.352 16.128,-8.46 -5.868,5.76 -13.32,10.8 -6.732,20.7360004 10.62,15.5879996 20.736,-2.412 33.084,1.188 -21.42,-6.66 -12.6,-13.2120004 -0.432,-19.1520004 -8.964,-4.176 -16.56,-6.336 -20.556,-14.004 -2.16,-4.14 -6.3,-7.416 -5.76,-12.6 0,-1.116 2.952,-3.096 3.6,-2.772 a 16.884,16.884 0 0 1 8.424,10.8 c 2.448,6.372 9.216,9.216 15.228,10.8 a 7.2,7.2 0 0 0 8.748,-7.056 c 0,-12.132 5.436,-9.504 11.916,-4.716 3.6,2.772 7.92,2.196 12.096,1.908 6.516,6.696 10.404,2.376 13.932,-3.348 11.736,-6.264 19.296,0.324 26.28,11.304 4.356,-13.536 16.452,-21.24 10.584,-36.324 6.048,2.664 7.668,7.848 12.708,7.2 12.492,9.612 9.54,23.904 11.124,36.792 0.252,17.4600004 10.98,12.78 20.844,9.828 a 8.532,8.532 0 0 1 7.668,3.6 c -24.012,13.5720004 -26.712,33.804 -18,57.6 l -3.6,3.6 v 0 c -11.088,-1.944 -15.156,-16.2 -28.98,-15.012 -8.46,0.684 -19.98,-1.188 -16.308,-15.768 -5.796,-0.972 -7.2,-25.7039996 -17.568,-3.132 -2.664,5.724 -8.1,7.2 -12.744,1.008 -8.748,-11.3039996 -12.384,-3.24 -16.056,4.212 -3.312,6.768 -1.404,14.076 -1.908,21.132 -13.032,-1.332 -21.6,3.888 -24.408,17.028 l -4.428,15.552 c -9.252,5.183998 -15.552,12.023998 -13.788,23.615998 -0.576,5.256002 1.08,8.676002 7.2,8.496002 v 0 c 2.628,5.616 11.268,6.948 10.296,14.904 z m 61.2,-158.4 -0.828,1.584 0.864,-1.512 c 0.252,-0.54 0.54,-1.044 0.792,-1.548 z m -68.4,54 a 4.536,4.536 0 0 0 -0.576,-1.188 c -0.18,-0.216 -0.612,0 -0.936,-0.252 l 1.476,1.512 1.548,7.992 c 1.332,-0.684 3.6,-1.08 3.852,-2.16 1.98,-5.004 -2.088,-5.148 -5.364,-5.832 z m 108,-39.6 c 1.296,1.44 2.052,4.68 4.716,1.332 l -4.716,-1.332 c 0.252,-6.696 -1.332,-11.772 -9.648,-10.332 -3.6,0.648 -8.172,3.168 -6.588,6.372 3.24,6.84 9.792,6.624 16.2,4.104 z m -10.8,42.048 -2.088,-2.988 -6.012,5.616 c 1.188,0.972 2.268,2.448 3.6,2.88 4.392,1.404 4.212,-1.908 4.464,-5.364 z"
         id="path11483"
         style="stroke-width:3.6" />
      <path
         class="cls-6"
         d="m 856.40036,46.82311 c -8.712,-23.76 -6.012,-43.9919996 18,-57.6 14.724,2.1600004 28.044,-2.808 41.22,-8.208 8.82,-3.6 10.8,-2.736 12.492,8.388 1.332,8.2800004 -7.812,13.7160004 -4.536,15.2280004 10.152,4.644 7.2,15.6959996 13.392,21.5999996 l -0.216,-0.216 c -1.548,1.044 -3.06,2.124 -4.572,3.204 -10.8,13.284 -24.948,23.76 -33.048,39.6 -3.996,7.812 -5.112,12.095998 5.292,15.479998 10.404,3.384 18.792,9.9 28.44,14.4 9.648,4.500002 18.9,6.948002 29.016,1.944002 3.60004,-1.764002 7.59604,-5.688002 11.26804,-1.548002 4.32,4.788002 -0.648,8.856002 -2.988,12.528002 -17.46004,27.288 -43.66804,40.032 -74.77204,45.432 -4.788,0.828 -16.056,-4.68 -14.4,8.532 -5.616,-2.448 -10.368,-6.048 -17.28,-1.008 -4.968,3.6 -9.972,-1.152 -13.428,-5.508 -5.076,-6.372 1.26,-6.516 4.572,-7.956 3.312,-1.44 5.112,-3.6 3.06,-6.696 a 16.92,16.92 0 0 0 -12.888,-8.64 c -3.312,-0.288 -5.328,5.22 -9.432,3.168 -3.6,-1.764 -9.432,3.6 -10.584,-2.736 -1.368,-7.2 4.356,-3.6 7.92,-4.608 9.684,-2.556 8.568,-13.176 12.672,-20.016 4.644,6.552 8.028,14.652 18,14.4 0,1.152 0,2.304 0,3.6 l 3.6,3.6 v 0 c 2.016,5.256 -6.12,12.996 1.764,15.768 6.192,2.16 8.244,-7.2 12.672,-9.9 14.616,-8.604 9.18,-33.12 34.776,-34.596 -13.5,-5.400002 -22.536,-2.916 -31.284,-3.6 l -3.6,-3.600002 c -12.744,0.288 -13.788,-8.676 -14.4,-18 a 19.512,19.512 0 0 0 -7.2,-14.399998 6.588,6.588 0 0 1 -7.2,-7.2 v -7.2 0 z"
         id="path11485"
         style="stroke-width:3.6" />
      <path
         class="cls-7"
         d="m 712.43636,39.62311 c -4.572,1.692 -12.564,-3.852 -13.5,3.78 -0.576,4.428 -4.284,13.68 6.768,15.084 3.024,0.396 11.628,1.44 5.652,8.784 -3.6,4.5 -8.532,6.984 -13.284,0.756 -2.484,-3.312 -5.436,-8.316 -9.72,-4.824 -6.408,5.256 1.944,8.568 4.032,10.8 9.144,9.827998 2.52,25.559998 15.012,34.704 5.4,3.96 -8.208,4.896 -7.2,11.592 8.82,1.44 18.504,-6.192 26.676,2.016 -6.984,4.824 -11.88,9.648 0,14.4 v 0 c 1.872,9 -12.528,13.428 -6.3,24.048 3.24,5.472 3.24,13.248 12.024,13.608 6.804,0.288 4.608,5.4 5.076,9.108 l -7.884,1.44 c 0.288,0.468 0.504,1.224 0.9,1.368 a 5.544,5.544 0 0 0 6.984,-2.808 c 17.064,5.76 22.536,20.628 12.636,33.948 a 94.104,94.104 0 0 0 -5.472,9.216 c -4.572,-0.396 -12.168,0.288 -9.9,-6.444 8.064,-23.94 -8.568,-21.6 -22.464,-22.32 a 7.632,7.632 0 0 0 -3.6,-7.2 c -7.2,-10.08 -16.272,-19.296 -20.664,-30.384 -5.76,-14.4 -9.648,-28.188 -29.16,-27.216 -2.952,0 -3.888,-3.996 -4.212,-7.02 l 7.2,-3.6 c 5.904,5.22 13.068,5.76 18.324,0.828 1.98,-1.836 -3.96,-6.048 -7.524,-8.028 1.548,-17.748002 -15.228,-30.348002 -13.536,-48.312 a 5.976,5.976 0 0 0 -5.724,-7.488 c -7.488,-0.54 -7.452,-0.972 -6.048,-9.036 2.592,-0.468 5.688,-0.36 5.436,-4.32 a 1.728,1.728 0 0 0 -1.116,-1.116 c -3.96,-0.216 -3.852,2.844 -4.32,5.436 -7.884,2.376 -11.124,-6.948 -18,-7.2 v 0 c 0.684,-9.9 6.984,-20.952 -6.012,-28.044 -1.296,-0.72 -2.916,-3.6 -2.52,-4.14 13.392,-22.68 -6.048,-7.8119996 -10.8,-8.7479996 -2.232,-7.2 6.444,-10.368 5.04,-16.5960004 l 7.956,-0.288 6.84,2.664 c 0.288,1.9440004 0.36,4.2120004 3.06,1.692 l 25.2,10.80000039 c -4.176,19.54799961 3.6,27.39599961 22.428,21.95999961 12.348,-3.6 24.228,0.756 36.936,1.476 -0.252,5.832 -7.488,9.396 -5.4,15.804 z"
         id="path11493"
         style="stroke-width:3.6" />
      <path
         class="cls-8"
         d="m 654.83636,125.98711 c 0.324,3.024 1.26,7.2 4.212,7.02 19.512,-0.972 23.4,12.78 29.16,27.216 4.392,11.088 13.608,20.304 20.664,30.384 -7.848,5.184 -19.44,5.472 -21.6,18.288 -1.044,6.48 -3.06,17.496 -11.016,15.12 -7.956,-2.376 -1.296,-12.24 -1.332,-18.828 0,-0.72 -1.548,-1.404 -2.16,-1.944 -8.604,-1.728 -8.028,14.724 -18.54,8.856 l 12.384,-32.4 c -19.116,0.828 -36.684,5.868 -54.792,0.864 a 107.28,107.28 0 0 1 -53.532,-33.372 c -2.772,-3.132 -6.228,-6.372 -4.176,-10.8 2.772,-6.12 8.388,-2.988 12.6,-2.448 23.76,3.096 55.224,-14.652 65.412,-36.828002 2.7,-5.868 -1.8,-7.632 -4.608,-9.972 -8.172,-6.84 -17.136,-12.815998 -23.22,-21.887998 6.768,-9.18 10.44,-21.924 25.2,-21.816 v 0 c -5.94,10.044 -9.54,20.52 -5.724,33.84 4.608,-5.94 10.8,-5.04 16.524,-5.112 v 0 c 5.832,17.603998 16.344,34.056 14.544,53.82 z"
         id="path11497"
         style="stroke-width:3.6" />
      <path
         class="cls-4"
         d="m 771.26036,-39.93689 c -4.176,0.288 -8.388,0.864 -12.096,-1.908 -6.48,-4.788 -11.916,-7.416 -11.916,4.716 a 7.2,7.2 0 0 1 -8.712,6.984 c -6.012,-1.548 -12.78,-4.392 -15.228,-10.8 a 16.884,16.884 0 0 0 -8.424,-10.8 c -0.756,-0.324 -3.6,1.656 -3.6,2.772 -0.54,5.184 3.6,8.46 5.76,12.6 3.996,7.668 11.592,9.828 20.556,14.004 -12.168,5.94 -20.988,12.4920004 0.432,19.1520004 -12.348,-3.6 -22.464,14.3999996 -33.048,-1.188 -6.588,-9.7920004 0.864,-14.9760004 6.732,-20.7360004 -12.636,-8.892 -12.168,3.6 -16.128,8.46 -8.46,-5.904 -0.504,-19.404 -11.916,-22.824 -9.36,-42.516 -4.5,-83.808 10.548,-124.236 1.62,-4.284 4.104,-7.704 9.072,-6.768 a 7.2,7.2 0 0 1 5.652,7.884 c 0,42.804 25.2,73.08 51.192,103.032 5.04,5.796 11.556,10.728 11.124,19.656 z"
         id="path11501"
         style="stroke-width:3.6" />
      <path
         class="cls-9"
         d="m 654.29636,212.09911 c 10.512,5.868 9.936,-10.584 18.54,-8.856 0.612,0.54 2.16,1.224 2.16,1.944 0,6.588 -6.876,16.38 1.332,18.828 8.208,2.448 9.972,-8.64 11.016,-15.12 2.088,-12.816 13.68,-13.104 21.6,-18.288 a 7.632,7.632 0 0 1 3.6,7.2 c -4.176,4.176 -6.048,6.948 -3.276,14.4 3.024,8.244 14.4,19.044 2.736,28.188 a 43.92,43.92 0 0 0 -17.64,39.6 l -0.288,0.18 c -7.452,0 -15.876,-13.572 -20.304,-4.284 -5.472,11.448 -15.66,19.836 -18.864,32.4 -8.496,5.4 -14.4,21.6 -25.2,14.796 -9.864,-6.012 -4.176,-20.844 -1.8,-31.284 6.084,-27.36 13.14,-54.612 26.388,-79.704 z"
         id="path11503"
         style="stroke-width:3.6" />
      <path
         class="cls-7"
         d="m 916.98836,309.76711 a 41.544,41.544 0 0 0 8.28,-1.8 c 0,-9.648 2.52,-24.84 -2.304,-27.864 -12.024,-7.56 -14.724,-25.2 -30.96,-27 -5.04,3.132 1.584,8.064 -1.656,11.268 -2.412,2.412 -5.544,6.156 -8.064,5.94 -3.996,-0.324 -5.22,-5.436 -3.888,-8.64 6.66,-15.912 -0.252,-24.372 -14.616,-30.276 -4.968,-2.052 -10.224,-10.116 -6.624,-12.744 8.172,-5.904 15.264,-16.884 28.008,-12.924 6.588,2.052 12.924,7.416 18.792,-0.972 9.216,10.188 14.4,22.68 19.26,35.172 a 115.2,115.2 0 0 0 53.02804,62.208 c 3.6,2.052 10.00796,2.52 9.396,9.036 -0.648,7.2 -7.524,7.2 -12.06,7.848 a 91.332,91.332 0 0 1 -56.59204,-9.252 z"
         id="path11505"
         style="stroke-width:3.6" />
      <path
         class="cls-9"
         d="m 629.60036,43.22311 c -14.796,0 -18.468,12.636 -25.2,21.816 -15.408,-11.772 -26.424,-27.252 -37.224,-42.984 -9.108,-13.2839996 -18.288,-26.4959996 -30.888,-36.936 -4.068,-3.348 -9.108,-6.66 -6.804,-13.212 2.304,-6.552 7.884,-3.924 12.312,-4.68 a 104.94,104.94 0 0 1 33.876,1.296 c -1.188,6.084 4.104,9.144 6.3,13.644 2.196,4.5 3.888,12.2040004 9.252,11.1240004 6.048,-1.224 5.94,-9.0000004 6.12,-14.8320004 l 3.6,-2.916 10.8,3.924 a 6.264,6.264 0 0 0 3.6,6.192 v 0 c 1.404,6.2280004 -7.2,9.2520004 -5.04,16.5960004 4.824,0.936 24.264,-13.9320004 10.8,8.7479996 -0.396,0.684 1.224,3.6 2.52,4.14 12.96,7.128 6.66,18.18 5.976,28.08 z"
         id="path11507"
         style="stroke-width:3.6" />
      <path
         class="cls-4"
         d="m 936.96836,26.33911 c -6.12,-5.976 -3.24,-17.0279996 -13.392,-21.5999996 -3.276,-1.512 5.868,-6.948 4.536,-15.2280004 -1.8,-11.124 -3.6,-11.988 -12.492,-8.388 -13.176,5.4 -26.496,10.3680004 -41.22,8.208 a 8.532,8.532 0 0 0 -7.668,-3.6 213.732,213.732 0 0 1 132.012,-1.98 25.416,25.416 0 0 1 6.12004,3.6 c 4.32,2.8800004 10.584,4.9320004 8.892,11.66400039 -1.404,5.54400001 -6.876,5.43600001 -11.736,5.94000001 A 158.4,158.4 0 0 0 936.96836,26.33911 Z"
         id="path11519"
         style="stroke-width:3.6" />
      <path
         class="cls-8"
         d="m 694.25636,280.17511 a 43.92,43.92 0 0 1 17.64,-39.6 c 11.592,-9.144 0.288,-19.944 -2.736,-28.188 -2.772,-7.596 -0.9,-10.368 3.276,-14.4 13.896,0.9 30.528,-1.62 22.464,22.32 -2.268,6.732 5.328,6.048 9.9,6.444 0,1.296 0,2.556 0.288,3.852 v 0 l -3.6,3.6 v 0 l -4.86,1.008 1.62,2.592 a 126,126 0 0 1 -43.992,42.372 z"
         id="path11521"
         style="stroke-width:3.6" />
      <path
         class="cls-7"
         d="m 834.76436,-61.10489 c -5.04,0.648 -6.66,-4.536 -12.708,-7.2 5.868,15.084 -6.228,22.788 -10.584,36.324 -6.984,-10.8 -14.4,-17.568 -26.28,-11.304 10.8,-23.976 25.56,-44.028 53.136,-50.4 3.636,11.34 -1.152,21.78 -3.564,32.58 z"
         id="path11523"
         style="stroke-width:3.6" />
      <path
         class="cls-6"
         d="m 834.76436,-61.10489 c 2.376,-10.8 7.2,-21.312 3.6,-32.724 1.44,-0.972 2.808,-2.628 4.356,-2.772 9.18,-0.936 20.808,-9.252 26.856,-1.728 6.048,7.524 -7.452,12.672 -11.088,19.692 -7.2,14.148 -5.256,29.988 -9.216,44.712 -0.9,3.348 0,7.2 -3.348,9.612 -1.548,-12.888 1.332,-27.18 -11.16,-36.792 z"
         id="path11525"
         style="stroke-width:3.6" />
      <path
         class="cls-8"
         d="m 654.80036,308.32711 c 3.204,-12.42 13.392,-20.808 18.864,-32.4 4.428,-9.288 12.852,4.284 20.304,4.284 z"
         id="path11531"
         style="stroke-width:3.6" />
      <path
         class="cls-4"
         d="m 597.34436,-21.54089 c 0,5.832 0,13.6080004 -6.12,14.8320004 -5.364,1.08 -6.948,-6.3720004 -9.252,-11.1240004 -2.304,-4.752 -7.488,-7.56 -6.3,-13.644 6.948,-0.72 12.744,2.412 18.576,5.472 l -1.62,1.944 1.944,-1.692 a 2.088,2.088 0 0 1 2.736,0.864 c -0.036,1.116 0,2.232 0.036,3.348 z"
         id="path11533"
         style="stroke-width:3.6" />
      <path
         class="cls-6"
         d="m 895.13636,187.11511 c -5.184,-0.612 -6.372,-3.96 -5.796,-8.496 z"
         id="path11535"
         style="stroke-width:3.6" />
      <path
         class="cls-4"
         d="m 738.21236,237.69511 -1.62,-2.592 4.86,-1.008 z"
         id="path11537"
         style="stroke-width:3.6" />
      <path
         class="cls-9"
         d="m 623.19236,-14.59289 -7.956,0.288 v 0 -3.852 c 3.24,0.036 6.552,-0.252 7.956,3.564 z"
         id="path11539"
         style="stroke-width:3.6" />
      <path
         class="cls-7"
         d="m 615.34436,-18.19289 v 3.852 a 6.264,6.264 0 0 1 -3.6,-6.192 z"
         id="path11541"
         style="stroke-width:3.6" />
      <path
         class="cls-9"
         d="m 633.09236,-10.34489 c -2.7,2.5200004 -2.772,0.252 -3.06,-1.692 1.044,0.648 1.944,1.224 3.06,1.692 z"
         id="path11543"
         style="stroke-width:3.6" />
      <path
         class="cls-4"
         d="m 741.41636,234.13111 3.6,-3.6 z"
         id="path11545"
         style="stroke-width:3.6" />
      <path
         class="cls-7"
         d="m 597.34436,-21.54089 c 0,-1.116 0,-2.232 0,-3.348 l 3.6,0.432 z"
         id="path11547"
         style="stroke-width:3.6" />
      <path
         class="cls-4"
         d="m 932.18036,29.25511 c 1.512,-1.08 3.024,-2.16 4.572,-3.204 z"
         id="path11551"
         style="stroke-width:3.6" />
      <path
         class="cls-6"
         d="m 730.40036,75.44311 4.428,-15.552 c 10.476,19.727998 20.232,21.095998 35.244,4.932 h 6.156 c 0.468,5.724 -0.936,11.916 4.644,16.271998 5.58,4.356 12.204,7.2 19.548,3.384 a 15.444,15.444 0 0 0 8.892,-17.567998 c -2.196,-11.556 -10.8,-14.148 -21.276,-13.788 7.704,-2.52 13.644,-9.144 22.176,-9.792 0,8.244 10.8,13.176 9.216,19.728 -5.58,23.723998 7.2,16.775998 18.936,12.564 -3.204,11.159998 -15.084,13.643998 -21.6,21.599998 l -4.788,7.632002 c -5.292,-10.260002 -13.176,-16.128002 -24.588,-10.800002 -12.996,6.048002 -10.224,16.920002 -6.336,27.504002 -0.612,5.112 0.216,11.232 -7.776,11.268 1.404,-12.312 0.288,-23.688 -15.408,-24.516 -14.4,-0.792 -17.712,9.144 -17.496,21.204 l -6.48,-7.2 c 0.972,-7.956 -7.668,-9.288 -10.296,-14.796 12.348,3.24 24.444,2.268 26.64,-12.276002 2.088,-12.672 -7.308,-19.187998 -19.836,-19.799998 z"
         id="path11553"
         style="stroke-width:3.6" />
      <path
         class="cls-5"
         d="m 816.83636,97.187108 c 6.444,-7.92 18.324,-10.404 21.6,-21.599998 v 0 c 4.536,-0.252 11.196,1.656 7.2,-7.2 a 10.8,10.8 0 0 1 7.2,-10.8 6.588,6.588 0 0 0 7.2,7.2 c -4.356,8.172 -5.796,14.903998 7.2,14.399998 0.468,9.396 1.512,18.36 14.4,18 0,1.188 0,2.376 0,3.600002 0,1.224 0,2.268 0,3.6 -4.104,5.22 -12.924,7.884 -5.04,18 4.32,5.544 -2.556,10.08 -9.252,10.8 v 0 l -3.6,-3.6 c 0,-1.152 0,-2.304 0,-3.6 -5.04,-10.224 -5.904,-24.012 -21.6,-25.2 v 0 l -3.6,-3.600002 a 7.452,7.452 0 0 0 -7.2,3.600002 z"
         id="path11555"
         style="stroke-width:3.6" />
      <path
         class="cls-10"
         d="m 781.19636,121.55911 c -3.888,-10.584 -6.66,-21.600002 6.336,-27.504002 11.412,-5.292 19.296,0.576 24.588,10.800002 h 0.18 l 0.432,6.192 v 0 c -4.464,8.676 -10.188,15.552 -21.096,15.336 z"
         id="path11557"
         style="stroke-width:3.6" />
      <path
         class="cls-10"
         d="m 740.51636,129.51511 c -0.216,-12.06 3.096,-21.996 17.496,-21.204 15.696,0.828 16.812,12.204 15.408,24.516 -15.192,11.988 -21.276,11.376 -32.904,-3.312 z"
         id="path11559"
         style="stroke-width:3.6" />
      <path
         class="cls-6"
         d="m 791.74436,126.45511 c 10.8,0.216 16.632,-6.66 21.096,-15.336 4.284,12.456 3.6,24.12 -7.2,35.748 -1.764,-9.108 -3.6,-18.144 -13.896,-20.412 z"
         id="path11561"
         style="stroke-width:3.6" />
      <path
         class="cls-6"
         d="m 874.40036,190.71511 c -3.384,-1.008 -6.732,-2.304 -10.188,-2.988 -8.1,-1.548 -8.64,-7.2 -7.2,-13.464 1.152,-5.256 4.932,-3.6 8.424,-2.628 5.508,1.368 12.492,0.756 9.324,10.224 a 30.168,30.168 0 0 0 -0.288,8.856 z"
         id="path11563"
         style="stroke-width:3.6" />
      <path
         class="cls-11"
         d="m 842.00036,100.85911 c 15.66,1.152 16.524,14.94 21.6,25.2 -10.008,0.18 -13.392,-7.92 -18,-14.4 -1.224,-3.672 -2.448,-7.236 -3.6,-10.8 z"
         id="path11565"
         style="stroke-width:3.6" />
      <path
         class="cls-6"
         d="m 831.20036,100.78711 a 7.452,7.452 0 0 1 7.2,-3.600002 c 0,1.224 0,2.448 0,3.600002 -2.412,3.78 -4.824,3.672 -7.2,0 z"
         id="path11567"
         style="stroke-width:3.6" />
      <path
         class="cls-6"
         d="m 820.40036,118.78711 c 1.908,0.36 4.572,-0.396 4.716,2.7 0,0.684 -1.332,2.016 -1.98,1.98 -3.132,0 -2.34,-2.808 -2.736,-4.68 z"
         id="path11569"
         style="stroke-width:3.6" />
      <path
         class="cls-6"
         d="m 812.73236,111.19111 -0.432,-6.192 c 1.836,1.188 5.076,2.16 5.256,3.6 0.54,3.456 -2.772,2.412 -4.824,2.592 z"
         id="path11571"
         style="stroke-width:3.6" />
      <path
         class="cls-6"
         d="m 874.40036,190.71511 4.68,1.332 c -2.628,3.312 -3.384,0 -4.68,-1.332 z"
         id="path11573"
         style="stroke-width:3.6" />
      <path
         class="cls-11"
         d="m 838.43636,100.89511 c 0,-1.224002 0,-2.448002 0,-3.600002 l 3.6,3.600002 z"
         id="path11575"
         style="stroke-width:3.6" />
      <path
         class="cls-6"
         d="m 820.40036,118.78711 -1.476,-0.828 z"
         id="path11577"
         style="stroke-width:3.6" />
      <path
         class="cls-7"
         d="m 726.83636,133.18711 c 1.188,0 2.376,0 3.6,0 l -3.6,3.6 v 0 c 0,-1.224 0,-2.412 0,-3.6 z"
         id="path11579"
         style="stroke-width:3.6" />
      <path
         class="cls-11"
         d="m 852.80036,57.62311 a 10.8,10.8 0 0 0 -7.2,10.8 12.42,12.42 0 0 0 -7.2,7.2 v 0 c -11.772,4.211998 -24.516,11.159998 -18.936,-12.564 1.548,-6.552 -9.288,-11.484 -9.216,-19.728 -8.532,0.648 -14.4,7.2 -22.176,9.792 a 22.968,22.968 0 0 0 -11.808,11.7 h -6.156 a 21.24,21.24 0 0 0 -10.8,-21.96 c 0.504,-7.2 -1.404,-14.4 1.908,-21.132 3.6,-7.452 7.2,-15.5159996 16.056,-4.212 4.644,6.012 10.08,4.716 12.744,-1.008 10.44,-22.5719996 11.772,2.16 17.568,3.132 -3.6,14.4 7.848,16.452 16.308,15.768 13.824,-1.188 18,13.068 28.98,15.012 z m -22.572,8.568 c -0.432,1.008 -1.44,2.232 -1.152,2.916 a 2.988,2.988 0 0 0 2.772,1.224 2.952,2.952 0 0 0 1.224,-2.772 c -0.288,-0.72 -1.836,-0.936 -2.844,-1.368 z"
         id="path11583"
         style="stroke-width:3.6" />
      <path
         class="cls-10"
         d="m 759.23636,42.86311 a 21.24,21.24 0 0 1 10.8,21.96 c -15.012,16.163998 -24.768,14.795998 -35.244,-4.932 2.952,-13.14 11.412,-18.36 24.444,-17.028 z"
         id="path11585"
         style="stroke-width:3.6" />
      <path
         class="cls-10"
         d="m 730.40036,75.44311 c 12.528,0.756 21.924,7.199998 19.98,19.835998 -2.196,14.400002 -14.4,15.516002 -26.64,12.276002 v 0 l -7.2,-8.496002 c -1.764,-11.592 4.608,-18.432 13.86,-23.615998 z"
         id="path11587"
         style="stroke-width:3.6" />
      <path
         class="cls-7"
         d="m 834.80036,-21.50489 c -6.408,2.52 -12.96,2.736 -16.236,-3.96 -1.584,-3.204 2.952,-5.724 6.588,-6.372 8.316,-1.44 9.9,3.6 9.648,10.332 z"
         id="path11589"
         style="stroke-width:3.6" />
      <path
         class="cls-4"
         d="m 726.83636,133.18711 c 0,1.188 0,2.376 0,3.6 -11.952,-4.752 -7.2,-9.576 0,-14.4 z"
         id="path11591"
         style="stroke-width:3.6" />
      <path
         class="cls-11"
         d="m 824.00036,20.54311 c -0.252,3.6 0,6.768 -4.464,5.508 -1.368,-0.432 -2.448,-1.908 -3.6,-2.88 l 6.012,-5.616 z"
         id="path11593"
         style="stroke-width:3.6" />
      <path
         class="cls-7"
         d="m 712.40036,39.65911 8.064,1.512 c -0.72,1.296 -1.116,3.6 -2.16,3.816 -5.112,1.944 -5.22,-2.088 -5.868,-5.364 z"
         id="path11595"
         style="stroke-width:3.6" />
      <path
         class="cls-7"
         d="m 726.83636,18.02311 c 3.276,0.684 7.2,0.828 5.364,5.904 -0.432,1.08 -2.52,1.476 -3.852,2.16 l -1.548,-7.992 z"
         id="path11597"
         style="stroke-width:3.6" />
      <path
         class="cls-6"
         d="m 716.61236,99.059108 7.2,8.496002 c -6.12,0.18 -7.776,-3.24 -7.2,-8.496002 z"
         id="path11599"
         style="stroke-width:3.6" />
      <path
         class="cls-7"
         d="m 834.80036,-21.50489 4.716,1.332 c -2.664,3.348 -3.42,0 -4.716,-1.332 z"
         id="path11601"
         style="stroke-width:3.6" />
      <path
         class="cls-11"
         d="m 856.40036,46.82311 -3.6,3.6 z"
         id="path11603"
         style="stroke-width:3.6" />
      <path
         class="cls-7"
         d="m 726.80036,18.09511 -1.476,-1.512 c 0.324,0 0.756,0 0.936,0.252 a 4.536,4.536 0 0 1 0.576,1.188 z"
         id="path11605"
         style="stroke-width:3.6" />
      <path
         class="cls-7"
         d="m 795.23636,-35.86889 -0.864,1.512 0.828,-1.584 z"
         id="path11607"
         style="stroke-width:3.6" />
      <path
         class="cls-7"
         d="m 795.20036,-35.94089 0.828,-1.476 -0.792,1.548 z"
         id="path11609"
         style="stroke-width:3.6" />
      <path
         class="cls-11"
         d="m 867.27236,133.18711 c 6.696,-0.792 13.572,-5.328 9.252,-10.8 -7.884,-10.152 0.936,-12.816 5.04,-18 1.188,-1.188 2.412,-2.34 3.6,-3.6 v 0 c 8.748,0.756 17.784,-1.728002 31.284,3.6 -25.596,1.476 -20.16,25.992 -34.776,34.596 -4.428,2.592 -6.48,12.06 -12.672,9.9 -7.848,-2.7 0.288,-10.44 -1.728,-15.696 z"
         id="path11611"
         style="stroke-width:3.6" />
      <path
         class="cls-11"
         d="m 867.20036,79.223108 c -12.996,0.504 -11.556,-6.227998 -7.2,-14.399998 a 19.512,19.512 0 0 1 7.2,14.399998 z"
         id="path11613"
         style="stroke-width:3.6" />
      <path
         class="cls-11"
         d="m 881.60036,100.85911 c 0,-1.188002 0,-2.376002 0,-3.600002 l 3.6,3.600002 v 0 z"
         id="path11615"
         style="stroke-width:3.6" />
      <path
         class="cls-11"
         d="m 863.63636,129.47911 3.6,3.6 z"
         id="path11617"
         style="stroke-width:3.6" />
      <path
         class="cls-9"
         d="m 640.43636,71.98711 c -5.868,0 -11.916,-0.828 -16.524,5.112 -3.816,-13.32 -0.216,-23.796 5.724,-33.84 6.876,0.216 10.116,9.54 18,7.2 v 0 c -1.404,8.064 -1.44,8.496 6.048,9.036 a 5.976,5.976 0 0 1 5.616,7.416 c -1.692,17.999998 15.084,30.563998 13.536,48.312 -5.256,0 -10.476,0 -10.8,7.2 l -7.2,3.6 c 1.8,-19.764 -8.712,-36.216002 -14.4,-54 l 0.828,-1.512 z"
         id="path11619"
         style="stroke-width:3.6" />
      <path
         class="cls-8"
         d="m 662.03636,122.38711 c 0.324,-7.2 5.544,-7.2 10.8,-7.2 3.6,1.98 9.504,6.192 7.524,8.028 -5.184,4.932 -12.384,4.392 -18.324,-0.828 z"
         id="path11621"
         style="stroke-width:3.6" />
      <path
         class="cls-9"
         d="m 647.63636,50.42311 c 0.468,-2.592 0.36,-5.652 4.32,-5.436 a 1.728,1.728 0 0 1 1.116,1.116 c 0.252,3.96 -2.844,3.852 -5.436,4.32 z"
         id="path11623"
         style="stroke-width:3.6" />
      <path
         class="cls-4"
         d="m 737.63636,183.51511 a 5.544,5.544 0 0 1 -6.984,2.808 c -0.396,0 -0.612,-0.9 -0.9,-1.368 z"
         id="path11625"
         style="stroke-width:3.6" />
      <path
         class="cls-9"
         d="m 594.57236,-25.75289 -1.944,1.692 1.62,-1.944 z"
         id="path11627"
         style="stroke-width:3.6" />
      <path
         class="cls-10"
         d="m 776.22836,64.82311 a 22.968,22.968 0 0 1 11.808,-11.7 c 10.332,-0.36 19.08,2.232 21.276,13.788 a 15.444,15.444 0 0 1 -8.892,17.567998 c -7.2,3.816 -13.572,1.296 -19.548,-3.384 -5.976,-4.679998 -4.176,-10.547998 -4.644,-16.271998 z"
         id="path11629"
         style="stroke-width:3.6" />
      <path
         class="cls-6"
         d="m 838.40036,75.58711 a 12.42,12.42 0 0 1 7.2,-7.2 c 3.996,8.856 -2.664,6.948 -7.2,7.2 z"
         id="path11631"
         style="stroke-width:3.6" />
      <path
         class="cls-6"
         d="m 881.60036,100.85911 h 3.6 c -1.224,1.152 -2.448,2.304 -3.6,3.6 -0.036,-1.332 0,-2.484 0,-3.6 z"
         id="path11633"
         style="stroke-width:3.6" />
      <path
         class="cls-5"
         d="m 830.22836,66.19111 c 1.008,0.432 2.556,0.648 2.844,1.368 a 2.952,2.952 0 0 1 -1.224,2.772 2.988,2.988 0 0 1 -2.772,-1.224 c -0.288,-0.684 0.9,-1.908 1.152,-2.916 z"
         id="path11635"
         style="stroke-width:3.6" />
      <path
         class="cls-8"
         d="m 640.43636,71.98711 0.828,-1.476 -0.828,1.512 z"
         id="path11637"
         style="stroke-width:3.6" />
    </g>
  </g>
</svg>
