<svg xmlns="http://www.w3.org/2000/svg" viewBox="0 0 998.07 245.26"><defs><style>.cls-1{fill:#fff;stroke:#fff;stroke-miterlimit:10;}.cls-2{fill:#e32527;}.cls-3{fill:#e32728;}.cls-4{fill:#a66e2a;}.cls-5{fill:#ae722a;}.cls-6{fill:#ac772b;}.cls-7{fill:#a26628;}.cls-8{fill:#986327;}.cls-9{fill:#935e26;}.cls-10{fill:#f8f4ea;}.cls-11{fill:#b47a2c;}</style></defs><g id="Layer_2" data-name="Layer 2"><g id="Layer_1-2" data-name="Layer 1"><path class="cls-1" d="M157.47,244.76c-.39-.95-1.26-.95-2.07-1-5.54-.61-6.55-3.88-5.05-9,5.24,3,10.73,4.63,16.68,4.1,4-.35,7.62-1.43,8.9-5.86s-1.17-7.4-4.64-9.48c-4.13-2.46-8.52-4.48-12.71-6.84-5.6-3.15-9.39-7.43-8.35-14.47.86-5.79,5-9.59,12.25-11.46a31.64,31.64,0,0,1,12.4-.52c6.39.87,6.48,1.15,5.45,8.5a23,23,0,0,0-14.87-2.75c-3.89.52-7.59,1.89-8.41,6.5-.76,4.28,1.69,6.9,5.14,8.77,3.79,2,7.71,3.88,11.45,6,5.76,3.32,10.35,7.62,9.33,15s-6,10.67-12.92,11.79c-.23,0-.39.47-.58.71Z"/><path class="cls-1" d="M99.48,244.76c-11.33-6.54-15.15-15.84-11.22-27.35,3-8.73,11.27-13.86,19.8-12.26s13.52,8.88,13.17,18.52c-.12,3.06-1.75,3-3.9,3-7.8,0-15.61,0-23.45,0C95,239.34,102.67,242.19,118,236c2.55,7.27-4.32,6.45-7.56,8.76ZM104.35,221c2.32,0,4.65-.16,7,0,3.32.27,3.54-1.19,2.66-3.84-1.26-3.8-3.46-6.29-7.66-6.69-5-.47-8.65,1.43-11,5.9-1.57,3-1.91,5,2.59,4.63C100,220.86,102.19,221,104.35,221Z"/><path class="cls-1" d="M779.34,244.76c-11.33-6.54-15.14-15.84-11.22-27.35,3-8.73,11.27-13.86,19.8-12.26s13.53,8.88,13.17,18.52c-.12,3.06-1.75,3-3.89,3-7.81,0-15.62,0-23.46,0,1.12,12.72,8.8,15.57,24.17,9.38,2.55,7.27-4.32,6.45-7.57,8.76ZM784.25,221c2.32,0,4.66-.16,7,0,2.8.23,3.6-.73,2.78-3.41-1.28-4.21-3.69-6.93-8.35-7.18a10.78,10.78,0,0,0-11,6.85c-1.08,2.7-.57,4,2.66,3.74C779.6,220.86,781.93,221,784.25,221Z"/><path class="cls-1" d="M372.43,244.76c-9.3-3.16-16.28-8.67-18.7-18.69-5.64-23.29,13.68-41.77,36.71-35.12,3.27.94,3.27.94,2.84,7.41-11.56-4.07-22.59-4.83-30.3,6.92-5,7.63-4.33,20.35,1.29,26.79,8.38,9.59,18.55,7.58,28.83,3.89,1.66,4.54-.22,6.85-4.67,7.7-1,.2-2.44-.41-3,1.1Z"/><path class="cls-1" d="M611.38,244.76C599.48,238,595.6,230,598.73,218.45c2.72-10,12.69-15.42,23.65-13,10.1,2.28,15.65,11.71,13.72,23.09-1.46,8.58-6.66,13.65-14.72,16.18Zm18.18-20c0-9.4-4.16-14.31-12.08-14.37-8.14-.06-13.18,5.66-13.08,14.83.09,8.51,5.13,14.12,12.78,14.24C625.14,239.61,629.6,234.31,629.56,224.79Z"/><path class="cls-1" d="M903.32,244.76c-11.9-6.73-15.78-14.81-12.64-26.31,2.71-10,12.69-15.42,23.64-13,10.1,2.28,15.66,11.71,13.72,23.09-1.46,8.58-6.66,13.65-14.72,16.18Zm18.19-19.61c0-9.73-4.11-14.73-12.22-14.73-7.95,0-12.87,5.5-12.94,14.46-.07,8.74,5.08,14.58,12.91,14.61S921.46,234.36,921.51,225.15Z"/><path class="cls-1" d="M414.42,244.76c-11.9-6.73-15.78-14.8-12.64-26.31,2.71-10,12.68-15.42,23.64-13,10.1,2.28,15.66,11.71,13.72,23.09-1.46,8.58-6.66,13.65-14.72,16.18Zm18.18-19.64c0-9.72-4.12-14.71-12.25-14.7-7.94,0-12.85,5.53-12.91,14.49-.05,8.75,5.12,14.57,12.95,14.58S432.57,234.34,432.6,225.12Z"/><path class="cls-1" d="M513.4,244.76c-11.9-6.73-15.78-14.8-12.64-26.31,2.71-10,12.68-15.42,23.64-13,10.1,2.28,15.66,11.71,13.72,23.09-1.46,8.58-6.66,13.65-14.72,16.18Zm18.18-19.56c.06-9.74-4.08-14.76-12.17-14.78s-12.9,5.47-13,14.42c-.08,8.74,5.05,14.59,12.87,14.65S531.53,234.38,531.58,225.2Z"/><path class="cls-1" d="M.5,190.8c11.15,0,22.3,0,33.45,0,1.83,0,4-.8,4.06,2.63,0,3.28-1.66,3.24-4,3.29-3.77.09-8.9-1.72-10.92.8-1.9,2.37-.69,7.28-.71,11.07,0,10.48-.08,21,0,31.44,0,2.58-.32,3.87-3.42,3.86s-3.45-1.22-3.43-3.81c.1-13.14-.07-26.28.13-39.42,0-3.34-1-4.3-4.17-4-3.64.29-7.31.14-11,.18Z"/><path class="cls-1" d="M550.39,244.76c-3.19-1.72-5.43-3.89-3.51-8.16,4.34,1.68,8.85,3.72,13.94,2.44,2.25-.56,4.14-1.32,4.58-3.86s-.81-4.54-3.12-5.64c-3.13-1.49-6.38-2.72-9.52-4.2-4-1.92-6.65-4.84-6.39-9.69s3.15-7.47,7.22-9.18a22,22,0,0,1,11.22-1.33c4.46.5,6.76,2.27,5.15,7.42a21.75,21.75,0,0,0-11.77-1.93c-2.46.37-4.51,1.29-5.05,4-.57,2.91.88,4.79,3.4,5.91,2.72,1.21,5.54,2.18,8.24,3.43,4.33,2,7.58,4.92,7.4,10.16-.16,4.66-3.49,8.06-9.24,9.69-.64.18-1.3.17-1.55.93Z"/><path class="cls-1" d="M302.44,244.76c-3.19-1.72-5.43-3.89-3.51-8.16,4.34,1.68,8.85,3.72,13.94,2.44,2.25-.56,4.14-1.32,4.57-3.86s-.8-4.54-3.11-5.64c-3.13-1.49-6.38-2.72-9.52-4.2-4.05-1.92-6.65-4.84-6.39-9.69s3.15-7.47,7.22-9.18a22,22,0,0,1,11.22-1.33c4.46.5,6.76,2.27,5.15,7.42a21.75,21.75,0,0,0-11.77-1.93c-2.46.37-4.51,1.29-5.05,4-.57,2.91.88,4.79,3.4,5.91,2.72,1.21,5.54,2.18,8.24,3.43,4.33,2,7.58,4.92,7.4,10.16-.16,4.66-3.49,8.06-9.24,9.69-.64.18-1.31.17-1.55.93Z"/><path class="cls-1" d="M269.45,244.76c-3.21-1.71-5.36-3.92-3.6-8.19,4.42,1.71,8.94,3.75,14,2.47,2.25-.56,4.14-1.32,4.57-3.86a5,5,0,0,0-3.11-5.64c-3.13-1.49-6.38-2.72-9.52-4.2-4.05-1.92-6.65-4.85-6.39-9.69s3.14-7.47,7.21-9.18a21.64,21.64,0,0,1,11.22-1.32c4.37.53,6.95,2.12,5.06,7.37a21.6,21.6,0,0,0-11.67-1.89c-2.47.37-4.52,1.29-5.05,4-.57,2.91.88,4.79,3.4,5.91,2.72,1.21,5.54,2.18,8.24,3.43,4.32,2,7.58,4.92,7.4,10.16-.17,4.66-3.5,8.06-9.25,9.69-.63.18-1.3.17-1.55.93Z"/><path class="cls-1" d="M817.34,244.76c-4.82-3.45-6.31-8.21-6-14,.29-5.29,0-10.62.09-15.93,0-2.28-.16-3.94-3.09-3.59-1.93.23-3.56.14-3.59-2.67s1.44-3,3.45-2.75c2.73.4,3.5-.85,3.22-3.34a25.18,25.18,0,0,1,0-4c.16-3.47,3.37-3,5.24-3.31,2.35-.38,1.25,2.15,1.3,3.33.29,6.83.22,6.94,6.82,7.22,2.11.09,2.9.6,2.9,2.8s-.92,2.69-3,2.78c-6.68.31-6.69.41-6.67,6.93,0,5.31.08,10.62.12,15.93,0,3.57,2.13,4.85,5.39,5.16,1.34.13,3.28-2.12,4,.71a3.75,3.75,0,0,1-2.23,4.68Z"/><path class="cls-2" d="M717.9,140.85c-14.59,14.23-30.42,26.11-51,29.35-32.4,5.1-61.85-.16-85.16-25.55-15.32-16.68-21.27-36.8-21-58.94.33-23.88,8.54-44.82,27.06-60.28C616.4,1.6,648.6-3.26,683.33,10.19a89.93,89.93,0,0,1,33.3,23c1.62,1.72,1.82,2.63,0,4.26-6.14,5.62-12.25,11.28-18.19,17.11-2.27,2.22-3.12.51-4.55-.85-10-9.58-21.47-16.42-35.26-19.33-23.54-5-48.27,5.66-59.32,25.89-12.07,22.09-8.74,49.83,8.82,66.59,12.88,12.3,28.91,16.27,46.44,14.6,15.47-1.47,27.91-9.13,38.77-19.58,3-2.91,4.47-2.24,6.87.41C705.92,128.52,711.87,134.53,717.9,140.85Z"/><path class="cls-2" d="M243.08,113.58c7.46-20.51,14.93-40.82,22.19-61.2.93-2.62,2-3.64,4.84-3.58,8.65.2,17.31.08,26.61.08-4.2,11.51-8.25,22.62-12.32,33.72-9.94,27.15-20,54.26-29.76,81.47-1.11,3.09-2.5,4.06-5.6,3.86a88.84,88.84,0,0,0-12,0c-2.89.2-4-1-4.92-3.54-7.45-19.8-15.07-39.53-22.66-59.27-.41-1.07-.92-2.09-1.56-3.51-8.2,21-16.34,41.57-24.22,62.25-1.2,3.14-2.59,4.36-6,4.08-5-.4-11.19,1.51-14.6-.85s-3.93-8.74-5.62-13.39q-18.65-51.22-37.24-102.45c-.22-.6-.45-1.19-.89-2.37,9.66,0,18.9,0,28.15,0,2.65,0,2.53,2.14,3.11,3.73q11.15,30.72,22.26,61.48c2-.78,2-2.72,2.53-4.15q11.1-28.67,22-57.39c1-2.58,2.16-4.08,5.29-3.72,4.9.58,11-1.91,14.5,1,3.25,2.64,4,8.45,5.68,12.9q9.2,23.82,18.29,47.66C241.6,111.43,241.73,112.63,243.08,113.58Z"/><path class="cls-2" d="M31.13,121c3.47,5.94,7.37,11.56,12.85,16a22.1,22.1,0,0,0,20.09,4.42c13.31-3.3,16.36-16.68,6.38-27.06C62.84,106.39,53.93,100,45.59,92.87,35.38,84.17,25,75.53,18.15,63.74,2.06,36.21,21.81,8.92,47.39,4,68.42-.08,85,8.29,99,23.17c5.63,6,5.65,5.93-.46,11.31-4.24,3.74-8.7,7.27-12.65,11.3-3.59,3.66-5.64,3.22-8.62-.88A28.64,28.64,0,0,0,60.81,33.59,16,16,0,0,0,49.7,34.7c-6.27,2.92-8,8.5-4.41,14.35,4.18,6.77,10.91,11,16.65,16.25,11,10,23.33,18.61,33.37,29.76,15.62,17.35,16.7,42.09,2,60-8.65,10.55-20.43,15.58-33.89,16.7C37.08,174,18.51,162.38,6.09,139.6c-1.48-2.72-.82-3.34,1.38-4.61C15.37,130.46,23.16,125.72,31.13,121Z"/><path class="cls-2" d="M475.81,129.86c6.22,6.67,13.26,11.56,22.25,13.39a17.39,17.39,0,0,0,9.29-.83c7.08-2.44,8.32-9.95,2.61-14.89-4.43-3.84-9.74-6.19-14.94-8.73-9.55-4.67-18.95-9.59-25.8-18.09-13-16.18-9.46-37.49,8.13-48.57C496.13,40.3,525.77,46,538.82,63.77c1.55,2.1.69,3.23-.71,4.62-5.08,5-10.31,10-15.15,15.22-1.91,2.07-2.65.17-3.42-.53-4-3.58-8.15-6.81-13.35-8.43a15.59,15.59,0,0,0-11.17.22c-5.31,2.3-6,6.62-1.81,10.48,3.24,3,7.38,4.39,11.18,6.39,8.63,4.54,17.39,8.69,25.3,14.65,19.68,14.81,17.82,50-10.4,60.93-19.13,7.45-44.65,4.24-60-14-2-2.36-2.31-3.6,0-5.91C465,141.75,470.27,135.79,475.81,129.86Z"/><path class="cls-2" d="M422.27,85.19a42.75,42.75,0,0,0-12.55-9.48c-4.57-2.16-9.19-2.73-13.9-.84-2.38,1-4.32,2.53-4.39,5.47-.07,2.76,1.24,4.53,3.61,6,10,6.1,21.2,10,30.94,16.66,16.38,11.14,22.28,29,14.16,45.89-6.82,14.13-19.35,20.58-34.45,21.83-20.85,1.73-34.72-4.42-48.1-20.44,5.45-5.82,11.05-11.53,16.31-17.54,2.26-2.59,3.66-2.34,5.79,0a34.84,34.84,0,0,0,18.77,10.44,17.44,17.44,0,0,0,7.37-.1c4.1-.82,7.25-2.88,8.37-6.88s-1.38-7-4.33-9.35c-6-4.78-13.24-7.46-20-11-9.38-4.87-18-10.75-23.38-20.09-10.69-18.58-1.37-39.93,19.67-47.51,18.33-6.61,39.64-.24,52.48,14.45,2.08,2.38,2.2,3.74-.17,6C433,74,427.74,79.58,422.27,85.19Z"/><path class="cls-3" d="M887.35,62.37c5.23-8.65,11.49-14,20.19-15.93a26.12,26.12,0,0,1,15.61,1.45c2.28.89,2.51,2.12,1.71,4.23-2.59,6.8-5.14,13.61-7.48,20.49-.84,2.46-1.75,2.37-4,1.6-8.82-3-14.5-.29-18.07,8.56-3.34,8.32-3.79,17.18-3.9,26q-.33,27.21.07,54.45c.06,4.08-1.23,4.91-5,4.77-7.32-.29-14.66-.19-22,0-2.81.06-4.1-.33-4.09-3.69q.19-55.95,0-111.9c0-2.43.39-3.61,3.23-3.52,6.83.2,13.67.22,20.49,0,2.85-.09,3.32,1.05,3.19,3.46C887.23,55.17,887.35,58.1,887.35,62.37Z"/><path class="cls-2" d="M959.45,60.86c5.16-6.84,11-12.16,19.41-14.19a27.75,27.75,0,0,1,16.08,1c2.55.89,3,2.09,2.12,4.36-2.56,6.8-5.2,13.57-7.53,20.45-.79,2.32-1.46,2.73-3.84,1.87-9-3.27-14.83-.57-18.29,8.61-3.87,10.29-3.88,21.15-3.94,31.94-.1,16.14-.11,32.29.17,48.43.06,3.87-1.09,4.71-4.72,4.57-7.49-.29-15-.21-22.49,0-2.84.07-3.63-.8-3.62-3.63q.13-55.93,0-111.86c0-2.84.78-3.71,3.63-3.63q9.74.3,19.48,0c2.84-.09,3.82.77,3.59,3.61S959.45,58.05,959.45,60.86Z"/><path class="cls-3" d="M340.54,108.69c0,18.31-.1,36.62.09,54.93,0,3.55-.94,4.46-4.41,4.33-7.49-.28-15-.19-22.48,0-2.82.06-4.11-.34-4.1-3.69q.18-55.93,0-111.86c0-2.93,1-3.61,3.72-3.56,7.82.17,15.66.25,23.48,0,3.29-.12,3.76,1.09,3.74,4C340.48,71.4,340.54,90.05,340.54,108.69Z"/><path class="cls-4" d="M820.1,130.85a9,9,0,0,1,2.45,4.9c-1.63,2.33-3.39.84-5.22.27-3.54-1.1-5.51,1.95-7.78,3.59-1,.73.46,3,1.84,3.54,4,1.64,5.91,4,4.06,8.41-.37.89,0,2.31,1.08,2.4.7.06,1.57-1,2.24-1.65.9-.89-.94-2.26.46-3.13,4.51.48,5.26,5.4,8.6,7.5,1.34.84.6,5.06.64,7.74a11.54,11.54,0,0,1-2.3.5c-12-4.33-21.15-12.69-30.11-22.42-2.09,8.13-4.29,15.63-7.79,22.64-.8,1.63-1.54,3.46-3.22,4.28s-3.64,1.41-5.19.06-.22-2.74.44-4a6.28,6.28,0,0,0,1-3.78c-.94-6.26-1.93-12.51-2.91-18.76,0-.36,0-.71-.08-1.07a26.14,26.14,0,0,1,1.52-2.56c2.75-3.7,1.23-7.83-3.51-9.43h0c-.13-1,.48-2.45-1.41-2.53-2.44-.1-2.44-2.26-3.34-3.78-1.73-3,2.27-4.18,1.75-6.68l1-1,1-3,1.8,2c3.23,4.08,4.92,4.25,9.14.92,2.22,0,2-1.71,2.16-3.13l2.93,1.4c2.86.59,3.37,3.1,3.89,5.67,3-3.23,3.16-6.47,2-9.93l0,0c.57-.05,1.49.23,1.34-.73,0-.39-.95-.66-1.46-1l-.05,0,1.31-2.14,4,1c.66,1,1.33,1,2,0l1,0,0,0c.32,1,.65,2,1,3-1.14,1.9-.83,4.85-3.52,5.56-1,.26-2.58-.7-2.2,1.28.32,1.74,2,.27,2.94.76,1.14.57,1.7-1,2.62-.88a4.7,4.7,0,0,1,3.58,2.4c.57.91.06,1.47-.85,1.86s-2.68.44-1.27,2.21c1,1.21,2.35,2.54,3.73,1.53,1.92-1.4,3.24-.4,4.8.28a6.7,6.7,0,0,1,2.34,3.63C818.33,129.75,818.66,130.68,820.1,130.85Zm-20.76-19-.41-.23.41.23c.11.52-.11,1.27.76,1.3.18,0,.56-.36.55-.55C800.61,111.76,799.87,112,799.34,111.87Zm15,20c.36.39.57,1.29,1.3.37l-1.3-.37a8.38,8.38,0,0,1,.08-2.46c.88-2.63-1.06-2.46-2.59-2.84-1-.23-2-.73-2.34.73-.38,1.75-.23,3.31,2,3.74C812.47,131.21,813.4,131.57,814.34,131.85Z"/><path class="cls-3" d="M325.68,39.19a19.89,19.89,0,0,1-20-19.74c-.09-10,9.2-19.3,19.43-19.45,10.63-.15,20,9.23,20,19.94A19.39,19.39,0,0,1,325.68,39.19Z"/><path class="cls-1" d="M750,233.56c-.09-13.31-.12-26.62-.32-39.93,0-2.69,1.29-2.89,3.39-2.87s3.4,0,3.38,2.77c-.12,15.81,0,31.62-.09,47.43,0,1,.59,2.8-1.19,2.69-2.76-.17-6,1.58-8.12-1.87-2.73-4.37-5.7-8.58-8.55-12.87Q729.22,215,720,201.09c-1.8.49-1,1.91-1,2.86,0,11.81,0,23.63,0,35.44,0,2.28.62,4.48-3.25,4.54s-3.39-1.92-3.38-4.31c0-14.48-.05-29,.1-43.43,0-1.78-1.68-4.9,1.6-5.23,3-.3,6.4-1.43,8.67,2.64,3.23,5.79,7.19,11.17,10.84,16.72l14.76,22.49.7,1.26.91,1.1c.53-.58.65-1.15,0-1.71Z"/><path class="cls-5" d="M775.35,112.86c-.34,1-.67,2-1,3-.34,0-.67,0-1,0l0-3c-2.27-2.28-5-.16-7.41-.56-.24-1.86,3.54-2.12,2-3.22-3.47-2.54-1.63-6.91-4.17-9.64-.58-.63-2.9-1.55-1.12-3,1.19-1,2,.42,2.7,1.34,1.32,1.73,2.67,1,3.69-.21,1.66-2-.73-2.33-1.57-2.44-3.07-.39-2-3-1.88-4.19.26-2.12,2.48-.58,3.75-1.05.18.91.21,2,1.63,1.49.29-.11.4-.7.6-1.06l-2.24-.42c-.58-1.78,1.43-2.77,1.5-4.39-3.53-.2-6.83-1.41-10.26-.41-5.18,1.51-7.39-.67-6.23-6.1,2.44.87,4.87,1.78,7.33,2.6,2.12.7,3.17.39,2.35-2.26-1.16-3.74-3-7.34-2.7-11.42,3.17,1,1,4.7,3.31,6.34,1.1-1.3,1-4.82,4.48-2.35-1.63,1.6-3.7,3-1.87,5.76C770.19,82,773,77,776.43,78c-5.95-1.85-3.5-3.67-.12-5.32-2.49-1.16-4.6-1.76-5.71-3.89-.6-1.15-1.75-2.06-1.6-3.5,0-.31.82-.86,1-.77a4.69,4.69,0,0,1,2.34,3c.68,1.77,2.56,2.56,4.23,3A2,2,0,0,0,779,68.56c0-3.37,1.51-2.64,3.31-1.31,1,.77,2.2.61,3.36.53,1.81,1.86,2.89.66,3.87-.93,3.26-1.74,5.36.09,7.3,3.14,1.21-3.76,4.57-5.9,2.94-10.09,1.68.74,2.13,2.18,3.53,2,3.47,2.67,2.65,6.64,3.09,10.22.07,4.85,3.05,3.55,5.79,2.73a2.37,2.37,0,0,1,2.13,1c-6.67,3.77-7.42,9.39-5,16l-1,1h0c-3.08-.54-4.21-4.5-8.05-4.17-2.35.19-5.55-.33-4.53-4.38-1.61-.27-2-7.14-4.88-.87-.74,1.59-2.25,2-3.54.28-2.43-3.14-3.44-.9-4.46,1.17-.92,1.88-.39,3.91-.53,5.87-3.62-.37-6,1.08-6.78,4.73l-1.23,4.32c-2.57,1.44-4.32,3.34-3.83,6.56-.16,1.46.3,2.41,2,2.36h0C773.22,110.28,775.62,110.65,775.35,112.86Zm17-44-.23.44.24-.42c.07-.15.15-.29.22-.43Zm-19,15a1.26,1.26,0,0,0-.16-.33c-.05-.06-.17,0-.26-.07l.41.42.43,2.22c.37-.19,1-.3,1.07-.6C775.39,84.11,774.26,84.07,773.35,83.88Zm30-11c.36.4.57,1.3,1.31.37l-1.31-.37c.07-1.86-.37-3.27-2.68-2.87-1,.18-2.27.88-1.83,1.77C799.74,73.66,801.56,73.6,803.34,72.9Zm-3,11.68-.58-.83-1.67,1.56c.33.27.63.68,1,.8C800.32,86.46,800.27,85.54,800.34,84.58Z"/><path class="cls-6" d="M809.34,91.88c-2.42-6.6-1.67-12.22,5-16,4.09.6,7.79-.78,11.45-2.28,2.45-1,3-.76,3.47,2.33.37,2.3-2.17,3.81-1.26,4.23,2.82,1.29,2,4.36,3.72,6l-.06-.06c-.43.29-.85.59-1.27.89-3,3.69-6.93,6.6-9.18,11-1.11,2.17-1.42,3.36,1.47,4.3s5.22,2.75,7.9,4,5.25,1.93,8.06.54c1-.49,2.11-1.58,3.13-.43,1.2,1.33-.18,2.46-.83,3.48-4.85,7.58-12.13,11.12-20.77,12.62-1.33.23-4.46-1.3-4,2.37-1.56-.68-2.88-1.68-4.8-.28-1.38,1-2.77-.32-3.73-1.53-1.41-1.77.35-1.81,1.27-2.21s1.42-1,.85-1.86a4.7,4.7,0,0,0-3.58-2.4c-.92-.08-1.48,1.45-2.62.88-1-.49-2.62,1-2.94-.76-.38-2,1.21-1,2.2-1.28,2.69-.71,2.38-3.66,3.52-5.56,1.29,1.82,2.23,4.07,5,4,0,.32,0,.64,0,1l1,1,0,0c.56,1.46-1.7,3.61.49,4.38,1.72.6,2.29-2,3.52-2.75,4.06-2.39,2.55-9.2,9.66-9.61-3.75-1.5-6.26-.81-8.69-1l-1-1c-3.54.08-3.83-2.41-4-5a5.42,5.42,0,0,0-2-4,1.83,1.83,0,0,1-2-2v-2h0Z"/><path class="cls-1" d="M187.37,206.32c5.43-1.78,7.19.42,8.24,5a155.57,155.57,0,0,0,7.47,23.41c2.66-8.32,5.37-16.62,7.94-25,.72-2.33,1.18-4.12,4.44-4.1s3.27,2.26,3.81,4.14c2.49,8.55,4.84,17.14,7.55,26.82,2.76-9.89,5.19-18.62,7.63-27.34.38-1.37.22-3.23,2.2-3.41,1.46-.14,3.29-.36,4.34.36,1.22.85-.19,2.4-.53,3.57-3,10.15-6.2,20.26-9.18,30.43-.75,2.56-1.78,3.7-4.74,3.65s-3.53-1.36-4.19-3.69c-2.28-8.12-4.78-16.18-7.57-25.47-2.86,8.86-5.41,16.66-7.9,24.49-.8,2.52-1.07,4.83-5,4.72s-3.66-2.7-4.34-4.82C194.1,228.28,190.78,217.37,187.37,206.32Z"/><path class="cls-1" d="M847,234.85c2.71-8.48,5.48-16.92,8.06-25.42.69-2.28,1.32-3.63,4.21-3.73,3.29-.11,3.35,2.12,3.9,4,2.48,8.56,4.83,17.16,7.57,27,2.63-9.43,4.9-17.63,7.2-25.82,1.44-5.17,1.46-5.16,7.56-4.72-2.49,8.25-4.94,16.39-7.4,24.52-.92,3-1.95,6-2.78,9-.68,2.51-1.25,4.4-4.76,4.27-3.17-.12-3.69-1.66-4.38-4.09-2.23-8-4.7-15.86-7.47-25.08-2.86,8.86-5.3,16.64-7.93,24.35-.58,1.68-.07,4.35-2.86,4.62s-5.22.44-6.29-3.49c-2.78-10.21-6.19-20.26-9.17-30.43-.33-1.12-2.71-3.3.28-3.81,2-.34,4.9-1.61,5.89,2.4,2,8,4.47,15.94,6.72,23.9C845.57,233.27,845.62,234.31,847,234.85Z"/><path class="cls-1" d="M52.19,211.34c5-5.33,10.08-7.41,16.33-6,4.93,1.11,7.94,4.2,8.87,9,1.76,9,.53,18.23.84,27.36.1,2.8-2,2-3.52,2.1-1.75.13-3.24.15-3.19-2.45.14-6.65.1-13.3,0-20-.08-7.42-2.86-10.86-8.64-10.93-6-.07-10.32,4.13-10.59,10.78-.25,6.31-.22,12.64-.06,18.95.07,2.77-.7,3.71-3.6,3.72s-3.14-1.28-3.13-3.6q.1-24.43,0-48.87c0-2.63.46-3.75,3.47-3.79,3.33,0,3.28,1.69,3.25,4C52.14,197.84,52.19,204,52.19,211.34Z"/><path class="cls-7" d="M769.35,89.88c-1.27.47-3.49-1.07-3.75,1.05-.16,1.23-1.19,3.8,1.88,4.19.84.11,3.23.4,1.57,2.44-1,1.25-2.37,1.94-3.69.21-.69-.92-1.51-2.31-2.7-1.34-1.78,1.46.54,2.38,1.12,3,2.54,2.73.7,7.1,4.17,9.64,1.5,1.1-2.28,1.36-2,3.22,2.45.4,5.14-1.72,7.41.56-1.94,1.34-3.3,2.68,0,4h0c.52,2.5-3.48,3.73-1.75,6.68.9,1.52.9,3.68,3.34,3.78,1.89.08,1.28,1.5,1.41,2.53l-2.19.4c.08.13.14.34.25.38a1.54,1.54,0,0,0,1.94-.78c4.74,1.6,6.26,5.73,3.51,9.43a26.14,26.14,0,0,0-1.52,2.56c-1.27-.11-3.38.08-2.75-1.79,2.24-6.65-2.38-6-6.24-6.2a2.12,2.12,0,0,0-1-2c-2-2.8-4.52-5.36-5.74-8.44-1.6-4-2.68-7.83-8.1-7.56-.82,0-1.08-1.11-1.17-1.95l2-1c1.64,1.45,3.63,1.6,5.09.23.55-.51-1.1-1.68-2.09-2.23.43-4.93-4.23-8.43-3.76-13.42A1.66,1.66,0,0,0,753,95.39c-2.08-.15-2.07-.27-1.68-2.51.72-.13,1.58-.1,1.51-1.2a.48.48,0,0,0-.31-.31c-1.1-.06-1.07.79-1.2,1.51-2.19.66-3.09-1.93-5-2h0c.19-2.75,1.94-5.82-1.67-7.79-.36-.2-.81-1-.7-1.15,3.72-6.3-1.68-2.17-3-2.43-.62-2,1.79-2.88,1.4-4.61l2.21-.08,1.9.74c.08.54.1,1.17.85.47l7,3c-1.16,5.43,1,7.61,6.23,6.1,3.43-1,6.73.21,10.26.41-.07,1.62-2.08,2.61-1.5,4.39Z"/><path class="cls-1" d="M971.74,222.16c4.1-4.3,8.22-8,11.56-12.31,3.12-4,6.75-4.6,12.18-2.57-5.19,4.82-10.31,9.72-15.61,14.42-2.12,1.89-2,3.12,0,5,5.59,5.19,11,10.6,17.11,16.57-5.59.88-9.56,1-13-3.46-3.61-4.66-8-8.69-13-14,0,5.77-.18,10.33.06,14.87.15,3-1.41,3-3.65,3.11-2.46.1-3.07-.79-3.06-3.14q.13-24.93,0-49.88c0-2.39.66-3.19,3.08-3.12s3.7.18,3.63,3.15c-.18,8.64-.09,17.29,0,25.93C971,218.38,970.57,220.05,971.74,222.16Z"/><path class="cls-8" d="M753.35,113.87c.09.84.35,2,1.17,1.95,5.42-.27,6.5,3.55,8.1,7.56,1.22,3.08,3.78,5.64,5.74,8.44-2.18,1.44-5.4,1.52-6,5.08-.29,1.8-.85,4.86-3.06,4.2s-.36-3.4-.37-5.23c0-.2-.43-.39-.6-.54-2.39-.48-2.23,4.09-5.15,2.46l3.44-9c-5.31.23-10.19,1.63-15.22.24a29.8,29.8,0,0,1-14.87-9.27c-.77-.87-1.73-1.77-1.16-3,.77-1.7,2.33-.83,3.5-.68,6.6.86,15.34-4.07,18.17-10.23.75-1.63-.5-2.12-1.28-2.77-2.27-1.9-4.76-3.56-6.45-6.08,1.88-2.55,2.9-6.09,7-6.06h0c-1.65,2.79-2.65,5.7-1.59,9.4,1.28-1.65,3-1.4,4.59-1.42h0C750.93,103.81,753.85,108.38,753.35,113.87Z"/><path class="cls-1" d="M652.29,210.79a17.42,17.42,0,0,1,9.91-5.69c7.47-1.39,13.78,2.71,15.17,10.12,1.63,8.73.45,17.58.74,26.38.11,3.16-2.35,2-3.93,2.19-2.24.34-2.8-.76-2.77-2.86.1-6.48.09-13,0-19.46-.09-7.43-2.86-10.91-8.59-11-6.23-.11-10.46,4.18-10.69,11.2-.19,5.81,0,11.64-.07,17.46,0,2.39.78,4.89-3.47,4.83-4-.06-3.15-2.38-3.16-4.57,0-9.64-.07-19.29.06-28.93,0-1.75-1.46-4.48,2.44-4.71C651.56,205.52,653,206.8,652.29,210.79Z"/><path class="cls-4" d="M785.69,67.78c-1.16.08-2.33.24-3.36-.53-1.8-1.33-3.31-2.06-3.31,1.31a2,2,0,0,1-2.42,1.94c-1.67-.43-3.55-1.22-4.23-3a4.69,4.69,0,0,0-2.34-3c-.21-.09-1,.46-1,.77-.15,1.44,1,2.35,1.6,3.5,1.11,2.13,3.22,2.73,5.71,3.89-3.38,1.65-5.83,3.47.12,5.32-3.43-1-6.24,4-9.18-.33-1.83-2.72.24-4.16,1.87-5.76-3.51-2.47-3.38,1-4.48,2.35-2.35-1.64-.14-5.39-3.31-6.34-2.6-11.81-1.25-23.28,2.93-34.51.45-1.19,1.14-2.14,2.52-1.88a2,2,0,0,1,1.57,2.19c0,11.89,7,20.3,14.22,28.62C784,63.93,785.81,65.3,785.69,67.78Z"/><path class="cls-9" d="M753.2,137.79c2.92,1.63,2.76-2.94,5.15-2.46.17.15.6.34.6.54,0,1.83-1.91,4.55.37,5.23s2.77-2.4,3.06-4.2c.58-3.56,3.8-3.64,6-5.08a2.12,2.12,0,0,1,1,2c-1.16,1.16-1.68,1.93-.91,4,.84,2.29,4,5.29.76,7.83a12.2,12.2,0,0,0-4.9,11l-.08.05c-2.07,0-4.41-3.77-5.64-1.19-1.52,3.18-4.35,5.51-5.24,9-2.36,1.5-4,6-7,4.11-2.74-1.67-1.16-5.79-.5-8.69C747.56,152.33,749.52,144.76,753.2,137.79Z"/><path class="cls-7" d="M826.17,164.92a11.54,11.54,0,0,0,2.3-.5c0-2.68.7-6.9-.64-7.74-3.34-2.1-4.09-7-8.6-7.5-1.4.87.44,2.24-.46,3.13-.67.67-1.54,1.71-2.24,1.65-1.11-.09-1.45-1.51-1.08-2.4,1.85-4.42-.07-6.77-4.06-8.41-1.38-.57-2.84-2.81-1.84-3.54,2.27-1.64,4.24-4.69,7.78-3.59,1.83.57,3.59,2.06,5.22-.27,2.56,2.83,4,6.3,5.35,9.77a32,32,0,0,0,14.73,17.28c1,.57,2.78.7,2.61,2.51-.18,2-2.09,2-3.35,2.18A25.37,25.37,0,0,1,826.17,164.92Z"/><path class="cls-9" d="M746.34,90.88c-4.11,0-5.13,3.51-7,6.06C735.06,93.67,732,89.37,729,85c-2.53-3.69-5.08-7.36-8.58-10.26-1.13-.93-2.53-1.85-1.89-3.67s2.19-1.09,3.42-1.3a29.15,29.15,0,0,1,9.41.36c-.33,1.69,1.14,2.54,1.75,3.79s1.08,3.39,2.57,3.09c1.68-.34,1.65-2.5,1.7-4.12l1-.81,3,1.09a1.74,1.74,0,0,0,1,1.72h0c.39,1.73-2,2.57-1.4,4.61,1.34.26,6.74-3.87,3,2.43-.11.19.34,1,.7,1.15C748.28,85.06,746.53,88.13,746.34,90.88Z"/><path class="cls-1" d="M944.37,210.91c2.83-3.28,5.59-5.54,9.54-5.78,2.68-.16,4.29.55,4.25,3.88,0,3.64-1.85,2.35-3.82,2.11-5.27-.64-9.63,3.52-10,10-.39,6.3-.31,12.63-.24,18.94,0,2.56-.3,3.87-3.43,3.89s-3.31-1.51-3.29-3.95c.09-9.64-.06-19.28.11-28.92,0-2-1.76-5.09,2.82-5.35C944.51,205.45,944.19,208.05,944.37,210.91Z"/><path class="cls-1" d="M482.36,210.91c3.05-3.4,6-5.84,10.42-5.81,2.88,0,3.46,1.59,3.44,4.2,0,3.37-1.81,2.07-3.58,1.84-5.34-.69-9.79,3.33-10.22,9.74s-.4,13-.24,19.44c.07,3-1.06,3.5-3.74,3.58-3.09.08-3-1.56-3-3.72.06-9.81-.05-19.62.1-29.43,0-1.85-1.63-4.78,2.62-5C482.16,205.47,482.62,207.49,482.36,210.91Z"/><path class="cls-1" d="M455.39,211c2.71-3.21,5.45-5.52,9.36-5.79,2.47-.17,4.45,0,4.51,3.58.05,3.92-1.93,2.58-4.06,2.34-5-.55-9.37,3.59-9.77,9.74-.43,6.46-.39,13-.25,19.44.06,2.89-.92,3.58-3.68,3.63-3,.06-3.08-1.42-3.06-3.66.07-9.81-.05-19.62.11-29.42,0-1.84-1.7-4.82,2.55-5.09C455,205.48,455.75,207.27,455.39,211Z"/><path class="cls-1" d="M581.45,225c0-5.14.1-10.29-.05-15.43-.07-2.57.32-3.93,3.43-3.85,2.73.08,3.32,1.09,3.3,3.55-.1,10.45-.14,20.9,0,31.35,0,2.79-1.08,3.2-3.5,3.27-2.77.09-3.33-1-3.24-3.47C581.56,235.28,581.45,230.13,581.45,225Z"/><path class="cls-1" d="M249.51,224.27c0-5.14.11-10.29,0-15.43-.08-2.43.8-3.11,3.15-3.1s3.62.44,3.58,3.25c-.13,10.61-.15,21.23,0,31.84.05,3.09-1.59,2.9-3.73,3-2.5.14-3.07-.87-3-3.17C249.61,235.22,249.51,229.74,249.51,224.27Z"/><path class="cls-4" d="M831.72,86.19c-1.7-1.66-.9-4.73-3.72-6-.91-.42,1.63-1.93,1.26-4.23-.5-3.09-1-3.33-3.47-2.33-3.66,1.5-7.36,2.88-11.45,2.28a2.37,2.37,0,0,0-2.13-1,59.37,59.37,0,0,1,36.67-.55,7.06,7.06,0,0,1,1.7,1c1.2.8,2.94,1.37,2.47,3.24-.39,1.54-1.91,1.51-3.26,1.65A44,44,0,0,0,831.72,86.19Z"/><path class="cls-8" d="M764.3,156.7a12.2,12.2,0,0,1,4.9-11c3.22-2.54.08-5.54-.76-7.83-.77-2.11-.25-2.88.91-4,3.86.25,8.48-.45,6.24,6.2-.63,1.87,1.48,1.68,2.75,1.79,0,.36,0,.71.08,1.07h0l-1,1h0l-1.35.28.45.72A35,35,0,0,1,764.3,156.7Z"/><path class="cls-7" d="M803.33,61.9c-1.4.18-1.85-1.26-3.53-2,1.63,4.19-1.73,6.33-2.94,10.09-1.94-3-4-4.88-7.3-3.14,3-6.66,7.1-12.23,14.76-14C805.33,56,804,58.9,803.33,61.9Z"/><path class="cls-6" d="M803.33,61.9c.66-3,2-5.92,1-9.09.4-.27.78-.73,1.21-.77,2.55-.26,5.78-2.57,7.46-.48s-2.07,3.52-3.08,5.47c-2,3.93-1.46,8.33-2.56,12.42-.25.93,0,2-.93,2.67C806,68.54,806.8,64.57,803.33,61.9Z"/><path class="cls-1" d="M252.92,196.59c-2.39-.4-4.16-1.68-4.12-4.15s1.65-3.93,4.19-3.89,4.16,1.51,4.13,4S255.27,196.2,252.92,196.59Z"/><path class="cls-1" d="M584.87,196.59c-2.39-.39-4.16-1.66-4.14-4.13s1.64-3.94,4.18-3.91,4.16,1.49,4.14,3.94S587.21,196.19,584.87,196.59Z"/><path class="cls-8" d="M753.34,164.52c.89-3.45,3.72-5.78,5.24-9,1.23-2.58,3.57,1.19,5.64,1.19Z"/><path class="cls-4" d="M737.38,72.89c0,1.62,0,3.78-1.7,4.12-1.49.3-1.93-1.77-2.57-3.09s-2.08-2.1-1.75-3.79c1.93-.2,3.54.67,5.16,1.52l-.45.54.54-.47a.58.58,0,0,1,.76.24C737.36,72.27,737.37,72.58,737.38,72.89Z"/><path class="cls-6" d="M820.1,130.85c-1.44-.17-1.77-1.1-1.61-2.36Z"/><path class="cls-4" d="M776.51,144.9l-.45-.72,1.35-.28Z"/><path class="cls-9" d="M744.56,74.82l-2.21.08h0l0-1.07C743.25,73.84,744.17,73.76,744.56,74.82Z"/><path class="cls-7" d="M742.38,73.82l0,1.07a1.74,1.74,0,0,1-1-1.72Z"/><path class="cls-9" d="M747.31,76c-.75.7-.77.07-.85-.47C746.75,75.71,747,75.87,747.31,76Z"/><path class="cls-4" d="M777.4,143.91l1-1Z"/><path class="cls-7" d="M737.38,72.89c0-.31,0-.62,0-.93l1,.12Z"/><path class="cls-1" d="M750,233.56l-.05-.1-.88.61-.7-1.26Z"/><path class="cls-4" d="M830.39,87c.42-.3.84-.6,1.27-.89Z"/><path class="cls-6" d="M774.34,99.83l1.23-4.32c2.91,5.48,5.62,5.86,9.79,1.37h1.71c.13,1.59-.26,3.31,1.29,4.52s3.39,2,5.43.94a4.29,4.29,0,0,0,2.47-4.88c-.61-3.21-3-3.93-5.91-3.83,2.14-.7,3.79-2.54,6.16-2.72,0,2.29,3,3.66,2.56,5.48-1.55,6.59,2,4.66,5.26,3.49-.89,3.1-4.19,3.79-6,6L797,108c-1.47-2.85-3.66-4.48-6.83-3-3.61,1.68-2.84,4.7-1.76,7.64-.17,1.42.06,3.12-2.16,3.13.39-3.42.08-6.58-4.28-6.81-4-.22-4.92,2.54-4.86,5.89l-1.8-2c.27-2.21-2.13-2.58-2.86-4.11,3.43.9,6.79.63,7.4-3.41C780.43,101.81,777.82,100,774.34,99.83Z"/><path class="cls-5" d="M798.35,105.87c1.79-2.2,5.09-2.89,6-6h0c1.26-.07,3.11.46,2-2a3,3,0,0,1,2-3,1.83,1.83,0,0,0,2,2c-1.21,2.27-1.61,4.14,2,4,.13,2.61.42,5.1,4,5,0,.33,0,.66,0,1s0,.63,0,1c-1.14,1.45-3.59,2.19-1.4,5,1.2,1.54-.71,2.8-2.57,3l0,0-1-1c0-.32,0-.64,0-1-1.4-2.84-1.64-6.67-6-7l0,0-1-1a2.07,2.07,0,0,0-2,1Z"/><path class="cls-10" d="M788.45,112.64c-1.08-2.94-1.85-6,1.76-7.64,3.17-1.47,5.36.16,6.83,3l.05,0,.12,1.72,0,0c-1.24,2.41-2.83,4.32-5.86,4.26Z"/><path class="cls-10" d="M777.15,114.85c-.06-3.35.86-6.11,4.86-5.89,4.36.23,4.67,3.39,4.28,6.81C782.07,119.1,780.38,118.93,777.15,114.85Z"/><path class="cls-6" d="M791.38,114c3,.06,4.62-1.85,5.86-4.26,1.19,3.46,1,6.7-2,9.93C794.75,117.14,794.24,114.63,791.38,114Z"/><path class="cls-6" d="M814.34,131.85c-.94-.28-1.87-.64-2.83-.83-2.25-.43-2.4-2-2-3.74.32-1.46,1.37-1,2.34-.73,1.53.38,3.47.21,2.59,2.84a8.38,8.38,0,0,0-.08,2.46Z"/><path class="cls-11" d="M805.34,106.89c4.35.32,4.59,4.15,6,7-2.78.05-3.72-2.2-5-4C806,108.87,805.66,107.88,805.34,106.89Z"/><path class="cls-6" d="M802.34,106.87a2.07,2.07,0,0,1,2-1c0,.34,0,.68,0,1C803.67,107.92,803,107.89,802.34,106.87Z"/><path class="cls-6" d="M799.34,111.87c.53.1,1.27-.11,1.31.75,0,.19-.37.56-.55.55-.87,0-.65-.78-.76-1.3Z"/><path class="cls-6" d="M797.21,109.76l-.12-1.72c.51.33,1.41.6,1.46,1C798.7,110,797.78,109.71,797.21,109.76Z"/><path class="cls-6" d="M814.34,131.85l1.3.37c-.73.92-.94,0-1.3-.37Z"/><path class="cls-11" d="M804.35,106.9c0-.34,0-.68,0-1l1,1Z"/><path class="cls-6" d="M799.34,111.87l-.41-.23.41.23Z"/><path class="cls-7" d="M773.35,115.87c.33,0,.66,0,1,0l-1,1h0C773.35,116.53,773.35,116.2,773.35,115.87Z"/><path class="cls-1" d="M749.9,233.46c.68.56.56,1.13,0,1.71l-.91-1.1Z"/><path class="cls-11" d="M808.34,94.88a3,3,0,0,0-2,3,3.45,3.45,0,0,0-2,2h0c-3.27,1.17-6.81,3.1-5.26-3.49.43-1.82-2.58-3.19-2.56-5.48-2.37.18-4,2-6.16,2.72a6.38,6.38,0,0,0-3.28,3.25h-1.71a5.9,5.9,0,0,0-3-6.1c.14-2-.39-4,.53-5.87,1-2.07,2-4.31,4.46-1.17,1.29,1.67,2.8,1.31,3.54-.28,2.9-6.27,3.27.6,4.88.87-1,4,2.18,4.57,4.53,4.38,3.84-.33,5,3.63,8.05,4.17Zm-6.27,2.38c-.12.28-.4.62-.32.81a.83.83,0,0,0,.77.34.82.82,0,0,0,.34-.77C802.78,97.44,802.35,97.38,802.07,97.26Z"/><path class="cls-10" d="M782.35,90.78a5.9,5.9,0,0,1,3,6.1c-4.17,4.49-6.88,4.11-9.79-1.37C776.38,91.86,778.73,90.41,782.35,90.78Z"/><path class="cls-10" d="M774.34,99.83c3.48.21,6.09,2,5.55,5.51-.61,4-4,4.31-7.4,3.41h0l-2-2.36C770,103.17,771.77,101.27,774.34,99.83Z"/><path class="cls-7" d="M803.34,72.9c-1.78.7-3.6.76-4.51-1.1-.44-.89.82-1.59,1.83-1.77,2.31-.4,2.75,1,2.68,2.87Z"/><path class="cls-4" d="M773.35,115.87c0,.33,0,.66,0,1-3.32-1.32-2-2.66,0-4Z"/><path class="cls-11" d="M800.34,84.58c-.07,1,0,1.88-1.24,1.53-.38-.12-.68-.53-1-.8l1.67-1.56Z"/><path class="cls-7" d="M769.34,89.89l2.24.42c-.2.36-.31,1-.6,1.06-1.42.54-1.45-.58-1.63-1.49Z"/><path class="cls-7" d="M773.35,83.88c.91.19,2,.23,1.49,1.64-.12.3-.7.41-1.07.6l-.43-2.22Z"/><path class="cls-6" d="M770.51,106.39l2,2.36C770.81,108.8,770.35,107.85,770.51,106.39Z"/><path class="cls-7" d="M803.34,72.9l1.31.37c-.74.93-.95,0-1.31-.37Z"/><path class="cls-11" d="M809.34,91.88l-1,1Z"/><path class="cls-7" d="M773.34,83.9l-.41-.42c.09,0,.21,0,.26.07a1.26,1.26,0,0,1,.16.33Z"/><path class="cls-7" d="M792.35,68.91l-.24.42.23-.44Z"/><path class="cls-7" d="M792.34,68.89l.23-.41-.22.43Z"/><path class="cls-11" d="M812.36,115.87c1.86-.22,3.77-1.48,2.57-3-2.19-2.82.26-3.56,1.4-5,.33-.33.67-.65,1-1h0c2.43.21,4.94-.48,8.69,1-7.11.41-5.6,7.22-9.66,9.61-1.23.72-1.8,3.35-3.52,2.75C810.66,119.48,812.92,117.33,812.36,115.87Z"/><path class="cls-11" d="M812.34,100.88c-3.61.14-3.21-1.73-2-4A5.42,5.42,0,0,1,812.34,100.88Z"/><path class="cls-11" d="M816.34,106.89c0-.33,0-.66,0-1l1,1h0Z"/><path class="cls-11" d="M811.35,114.84l1,1Z"/><path class="cls-9" d="M749.35,98.87c-1.63,0-3.31-.23-4.59,1.42-1.06-3.7-.06-6.61,1.59-9.4,1.91.06,2.81,2.65,5,2h0c-.39,2.24-.4,2.36,1.68,2.51a1.66,1.66,0,0,1,1.56,2.06c-.47,5,4.19,8.49,3.76,13.42-1.46,0-2.91,0-3,2l-2,1c.5-5.49-2.42-10.06-4-15l.23-.42Z"/><path class="cls-8" d="M755.35,112.87c.09-2,1.54-2,3-2,1,.55,2.64,1.72,2.09,2.23C759,114.47,757,114.32,755.35,112.87Z"/><path class="cls-9" d="M751.35,92.88c.13-.72.1-1.57,1.2-1.51a.48.48,0,0,1,.31.31c.07,1.1-.79,1.07-1.51,1.2Z"/><path class="cls-4" d="M776.35,129.85a1.54,1.54,0,0,1-1.94.78c-.11,0-.17-.25-.25-.38l2.19-.4Z"/><path class="cls-9" d="M736.61,71.72l-.54.47.45-.54Z"/><path class="cls-10" d="M787.07,96.88a6.38,6.38,0,0,1,3.28-3.25c2.87-.1,5.3.62,5.91,3.83a4.29,4.29,0,0,1-2.47,4.88c-2,1.06-3.77.36-5.43-.94S787.2,98.47,787.07,96.88Z"/><path class="cls-6" d="M804.34,99.87a3.45,3.45,0,0,1,2-2C807.45,100.33,805.6,99.8,804.34,99.87Z"/><path class="cls-6" d="M816.34,106.89l1,0c-.34.32-.68.64-1,1C816.33,107.52,816.34,107.2,816.34,106.89Z"/><path class="cls-5" d="M802.07,97.26c.28.12.71.18.79.38a.82.82,0,0,1-.34.77.83.83,0,0,1-.77-.34C801.67,97.88,802,97.54,802.07,97.26Z"/><path class="cls-8" d="M749.35,98.87l.23-.41-.23.42Z"/></g></g></svg>